<svg width="50" height="44" viewBox="0 0 50 44" fill="none" xmlns="http://www.w3.org/2000/svg">
<path d="M8.33464 7.91016C6.03255 7.91016 4.16797 9.49031 4.16797 11.4412V32.6277C4.16797 34.5786 6.03255 36.1587 8.33464 36.1587H41.668C43.9701 36.1587 45.8346 34.5786 45.8346 32.6277V11.4412C45.8346 9.49031 43.9701 7.91016 41.668 7.91016H8.33464ZM9.76693 18.5034H12.3467L15.6263 25.2138V18.5034H18.9059L21.2497 23.2689L23.5934 18.5034H26.6411V25.5655H24.7653V20.4448L22.1896 25.5655H20.3138L17.7381 20.2689V25.5655H13.7505L13.0506 23.9759H9.06299L8.36312 25.5655H6.2513L9.76693 18.5034ZM29.2209 18.5034H36.952L38.8278 20.6206L41.1716 18.5034H43.7513L40.2357 22.0344L43.7513 25.5655H41.4076L39.0638 23.2689L36.7201 25.5655H29.2209V18.5034ZM10.9388 19.9172L9.76693 22.3862H12.1107L10.9388 19.9172ZM31.0967 20.093V21.3275H35.3122V22.7414H31.0967V24.1517H35.5482L37.6559 22.0344L35.7842 20.093H31.0967Z" fill="white"/>
</svg>
