<svg width="55" height="53" viewBox="0 0 55 53" fill="none" xmlns="http://www.w3.org/2000/svg">
<g clip-path="url(#clip0_260_31)">
<path d="M45.2214 10.2326V12.4037C45.2214 13.0033 44.7162 13.4893 44.0929 13.4893H10.2379C9.61462 13.4893 9.10938 13.0033 9.10938 12.4037V10.2326C9.10938 9.63303 9.61462 9.147 10.2379 9.147H20.3944V6.97584C20.3944 5.77675 21.4049 4.80469 22.6514 4.80469H31.6794C32.9259 4.80469 33.9364 5.77675 33.9364 6.97584V9.147H44.0929C44.7162 9.147 45.2214 9.63303 45.2214 10.2326ZM13.33 44.1895C13.4962 46.4682 15.4693 48.2334 17.844 48.2278H36.532C38.9066 48.2334 40.8798 46.4682 41.046 44.1895L42.9644 17.8316H11.3664L13.33 44.1895Z" fill="#333333"/>
</g>
<defs>
<clipPath id="clip0_260_31">
<rect width="54.1681" height="52.1078" fill="white" transform="translate(0.0820312 0.462891)"/>
</clipPath>
</defs>
</svg>
