<svg width="273" height="204" viewBox="0 0 273 204" fill="none" xmlns="http://www.w3.org/2000/svg">
<path d="M129.242 154.874H23.9443C23.1194 154.873 22.3288 154.544 21.746 153.96C21.1633 153.376 20.8359 152.585 20.8359 151.76V3.74087C20.8431 2.92071 21.1736 2.1365 21.7556 1.55858C22.3376 0.980655 23.1241 0.655702 23.9443 0.654297H129.242C130.068 0.654297 130.86 0.982362 131.444 1.56632C132.028 2.15028 132.356 2.9423 132.356 3.76814V151.76C132.356 152.586 132.028 153.378 131.444 153.962C130.86 154.546 130.068 154.874 129.242 154.874ZM23.9443 0.763364C23.1556 0.764808 22.3996 1.07915 21.8424 1.63738C21.2852 2.19562 20.9723 2.95213 20.9723 3.74087V151.76C20.9723 152.549 21.2852 153.305 21.8424 153.864C22.3996 154.422 23.1556 154.736 23.9443 154.738H129.242C130.032 154.736 130.788 154.422 131.346 153.864C131.904 153.306 132.218 152.549 132.22 151.76V3.74087C132.218 2.95163 131.904 2.19513 131.346 1.63705C130.788 1.07897 130.032 0.764805 129.242 0.763364H23.9443Z" fill="#EBEBEB"/>
<path d="M247.202 154.874H141.899C141.074 154.873 140.282 154.544 139.699 153.96C139.115 153.377 138.787 152.586 138.785 151.76V3.74087C138.794 2.92021 139.125 2.136 139.708 1.55823C140.291 0.980464 141.078 0.655687 141.899 0.654297H247.202C248.022 0.657135 248.807 0.982722 249.388 1.56049C249.969 2.13826 250.298 2.92165 250.305 3.74087V151.76C250.305 152.584 249.979 153.374 249.397 153.958C248.816 154.542 248.026 154.871 247.202 154.874ZM141.899 0.763364C141.11 0.764805 140.353 1.07897 139.795 1.63705C139.237 2.19513 138.923 2.95163 138.921 3.74087V151.76C138.923 152.549 139.237 153.306 139.795 153.864C140.353 154.422 141.11 154.736 141.899 154.738H247.202C247.992 154.736 248.748 154.422 249.306 153.864C249.864 153.306 250.179 152.549 250.18 151.76V3.74087C250.179 2.95163 249.864 2.19513 249.306 1.63705C248.748 1.07897 247.992 0.764805 247.202 0.763364H141.899Z" fill="#EBEBEB"/>
<path d="M245.347 187.971H227.285V188.107H245.347V187.971Z" fill="#EBEBEB"/>
<path d="M180.626 189.453H175.887V189.589H180.626V189.453Z" fill="#EBEBEB"/>
<path d="M226.738 182.91H216.273V183.046H226.738V182.91Z" fill="#EBEBEB"/>
<path d="M52.1622 183.826H28.6094V183.963H52.1622V183.826Z" fill="#EBEBEB"/>
<path d="M60.4715 183.826H57.0195V183.963H60.4715V183.826Z" fill="#EBEBEB"/>
<path d="M122.782 186.127H71.6953V186.263H122.782V186.127Z" fill="#EBEBEB"/>
<path d="M272.666 179.195H0V179.332H272.666V179.195Z" fill="#EBEBEB"/>
<path d="M84.4934 22.5547H20.3516V117.333H84.4934V22.5547Z" fill="#E0E0E0"/>
<path d="M86.8567 22.5547H22.7148V117.333H86.8567V22.5547Z" fill="#F0F0F0"/>
<path d="M83.6099 72.6602H25.832V111.782H83.6099V72.6602Z" fill="#EBEBEB"/>
<path d="M83.6099 26.4043H25.832V72.6593H83.6099V26.4043Z" fill="white"/>
<path d="M83.6083 26.4043H81.5742V111.781H83.6083V26.4043Z" fill="#E0E0E0"/>
<path d="M25.6523 72.6652V74.7266H81.7942V72.6652H25.6523Z" fill="#E0E0E0"/>
<path d="M83.6107 69.1973H24.7422V72.6601H83.6107V69.1973Z" fill="#F0F0F0"/>
<path d="M238.948 135.094H160.77C154.845 135.094 150.043 139.896 150.043 145.82V169.09C150.043 175.014 154.845 179.816 160.77 179.816H238.948C244.873 179.816 249.675 175.014 249.675 169.09V145.82C249.675 139.896 244.873 135.094 238.948 135.094Z" fill="#E0E0E0"/>
<path d="M233.694 135.422H155.516C149.592 135.422 144.789 140.224 144.789 146.149V169.418C144.789 175.342 149.592 180.145 155.516 180.145H233.694C239.619 180.145 244.421 175.342 244.421 169.418V146.149C244.421 140.224 239.619 135.422 233.694 135.422Z" fill="#F5F5F5"/>
<path d="M157.436 139.643H232.364C233.348 139.643 234.323 139.836 235.232 140.213C236.141 140.589 236.967 141.141 237.663 141.837C238.358 142.533 238.91 143.359 239.287 144.268C239.663 145.177 239.857 146.151 239.857 147.135V156.33H149.965V147.13C149.966 145.147 150.753 143.246 152.154 141.843C153.554 140.44 155.453 139.648 157.436 139.643Z" fill="#E0E0E0"/>
<path d="M149.965 158.582H239.857V167.776C239.857 169.764 239.068 171.669 237.663 173.075C236.257 174.48 234.352 175.269 232.364 175.269H157.436C155.452 175.263 153.552 174.471 152.152 173.067C150.751 171.662 149.965 169.76 149.965 167.776V158.582Z" fill="#E0E0E0"/>
<path d="M215.674 142.871H199.211V156.433H215.674V142.871Z" fill="#E6E6E6"/>
<path d="M199.211 142.871H194.996V156.433H199.211V142.871Z" fill="#F5F5F5"/>
<path d="M198.501 152.801C198.501 153.075 198.42 153.343 198.267 153.571C198.115 153.798 197.899 153.976 197.646 154.081C197.393 154.186 197.114 154.213 196.845 154.16C196.577 154.106 196.33 153.974 196.136 153.781C195.942 153.587 195.811 153.34 195.757 153.071C195.704 152.803 195.731 152.524 195.836 152.271C195.941 152.018 196.118 151.802 196.346 151.649C196.574 151.497 196.842 151.416 197.116 151.416C197.483 151.416 197.835 151.562 198.095 151.822C198.355 152.081 198.501 152.434 198.501 152.801Z" fill="#E0E0E0"/>
<path d="M219.993 140.777H207.625V156.434H219.993V140.777Z" fill="#E6E6E6"/>
<path d="M207.628 140.777H204.051V156.434H207.628V140.777Z" fill="#F5F5F5"/>
<path d="M205.84 144.278C206.518 144.278 207.067 143.729 207.067 143.051C207.067 142.374 206.518 141.824 205.84 141.824C205.163 141.824 204.613 142.374 204.613 143.051C204.613 143.729 205.163 144.278 205.84 144.278Z" fill="#E0E0E0"/>
<path d="M205.84 144.278C206.518 144.278 207.067 143.729 207.067 143.051C207.067 142.374 206.518 141.824 205.84 141.824C205.163 141.824 204.613 142.374 204.613 143.051C204.613 143.729 205.163 144.278 205.84 144.278Z" fill="#E0E0E0"/>
<path d="M221.692 142.871H211.266V156.433H221.692V142.871Z" fill="#EBEBEB"/>
<path d="M211.266 142.871H208.883V156.433H211.266V142.871Z" fill="#F5F5F5"/>
<path d="M233.478 145.166H219.801V156.438H233.478V145.166Z" fill="#E6E6E6"/>
<path d="M219.802 145.166H216.301V156.438H219.802V145.166Z" fill="#F5F5F5"/>
<path d="M237.063 143.428H226.789V156.434H237.063V143.428Z" fill="#E6E6E6"/>
<path d="M226.796 143.428H223.824V156.434H226.796V143.428Z" fill="#F5F5F5"/>
<path d="M239.8 145.166H229.82V156.438H239.8V145.166Z" fill="#E6E6E6"/>
<path d="M229.815 145.166H227.836V156.438H229.815V145.166Z" fill="#F0F0F0"/>
<path d="M176.323 161.189H163.578V174.752H176.323V161.189Z" fill="#E6E6E6"/>
<path d="M163.583 161.189H160.316V174.752H163.583V161.189Z" fill="#F5F5F5"/>
<path d="M179.66 159.094H170.09V174.75H179.66V159.094Z" fill="#E6E6E6"/>
<path d="M170.093 159.094H167.328V174.75H170.093V159.094Z" fill="#F5F5F5"/>
<path d="M219.795 161.189H207.051V174.752H219.795V161.189Z" fill="#E6E6E6"/>
<path d="M207.056 161.189H203.789V174.752H207.056V161.189Z" fill="#F5F5F5"/>
<path d="M223.133 159.094H213.562V174.75H223.133V159.094Z" fill="#E6E6E6"/>
<path d="M213.575 159.094H210.805V174.75H213.575V159.094Z" fill="#F5F5F5"/>
<path d="M180.985 161.189H172.914V174.752H180.985V161.189Z" fill="#EBEBEB"/>
<path d="M172.914 161.189H171.07V174.752H172.914V161.189Z" fill="#F5F5F5"/>
<path d="M190.104 163.484H179.52V174.756H190.104V163.484Z" fill="#E6E6E6"/>
<path d="M179.519 163.484H176.809V174.756H179.519V163.484Z" fill="#F5F5F5"/>
<path d="M192.877 161.744H184.926V174.75H192.877V161.744Z" fill="#E6E6E6"/>
<path d="M184.93 161.744H182.629V174.75H184.93V161.744Z" fill="#F5F5F5"/>
<path d="M195.001 163.484H187.273V174.756H195.001V163.484Z" fill="#E6E6E6"/>
<path d="M187.267 163.484H185.734V174.756H187.267V163.484Z" fill="#F0F0F0"/>
<path d="M185.658 122.088C185.524 121.828 185.31 121.618 185.048 121.487C184.786 121.357 184.49 121.313 184.201 121.363C183.912 121.434 183.651 121.594 183.455 121.819C183.26 122.045 183.14 122.326 183.111 122.623C182.912 122.476 182.674 122.394 182.427 122.387C182.18 122.38 181.937 122.449 181.731 122.585C181.525 122.735 181.364 122.939 181.268 123.175C181.172 123.411 181.143 123.669 181.186 123.921C181.071 123.837 180.94 123.778 180.802 123.748C180.663 123.717 180.52 123.716 180.381 123.744C180.242 123.773 180.11 123.829 179.994 123.912C179.878 123.994 179.781 124.099 179.708 124.221C179.574 124.483 179.546 124.787 179.63 125.069C179.715 125.352 179.905 125.591 180.161 125.737C179.984 125.763 179.823 125.853 179.707 125.989C179.592 126.126 179.531 126.3 179.536 126.479C179.541 126.658 179.611 126.828 179.733 126.959C179.855 127.089 180.021 127.171 180.199 127.187C180.016 127.201 179.843 127.279 179.711 127.406C179.578 127.533 179.494 127.703 179.473 127.885C179.454 128.069 179.497 128.253 179.596 128.409C179.695 128.565 179.844 128.682 180.019 128.742C179.933 128.791 179.859 128.86 179.802 128.942C179.746 129.024 179.709 129.118 179.694 129.216C179.679 129.315 179.686 129.415 179.715 129.51C179.744 129.606 179.793 129.693 179.861 129.767C179.938 129.827 180.028 129.867 180.124 129.884C180.22 129.902 180.318 129.895 180.411 129.866C180.504 129.836 180.589 129.784 180.657 129.715C180.725 129.645 180.776 129.56 180.804 129.467C180.818 129.494 180.837 129.517 180.862 129.535C180.886 129.553 180.914 129.565 180.944 129.569C180.974 129.574 181.005 129.572 181.033 129.563C181.062 129.553 181.088 129.537 181.109 129.516C181.129 129.491 181.143 129.463 181.151 129.433C181.159 129.403 181.16 129.371 181.155 129.34C181.15 129.309 181.138 129.28 181.121 129.254C181.104 129.228 181.081 129.206 181.055 129.189C181.099 129.239 181.155 129.275 181.219 129.295C181.282 129.315 181.35 129.317 181.414 129.3C181.479 129.284 181.537 129.25 181.583 129.202C181.63 129.155 181.662 129.095 181.677 129.031C181.656 129.186 181.675 129.343 181.734 129.488C181.793 129.633 181.888 129.761 182.011 129.857C182.134 129.954 182.279 130.017 182.434 130.041C182.589 130.064 182.747 130.047 182.893 129.99C182.862 130.062 182.847 130.14 182.849 130.218C182.851 130.296 182.869 130.373 182.903 130.443C182.937 130.514 182.986 130.576 183.047 130.626C183.107 130.675 183.177 130.712 183.253 130.732C183.557 130.782 183.869 130.72 184.131 130.557C184.391 130.394 184.686 130.295 184.992 130.268C185.257 130.302 185.516 130.374 185.761 130.481C186.172 130.605 186.609 130.613 187.024 130.503C187.439 130.393 187.816 130.171 188.112 129.859C188.222 129.987 188.363 130.084 188.522 130.143C188.68 130.201 188.851 130.218 189.017 130.193C189.184 130.168 189.342 130.102 189.477 130C189.611 129.897 189.717 129.763 189.786 129.609C189.812 129.767 189.892 129.912 190.011 130.019C190.13 130.126 190.283 130.19 190.443 130.199C190.603 130.209 190.762 130.164 190.893 130.071C191.024 129.979 191.12 129.845 191.165 129.69V130.116C191.314 130.128 191.463 130.103 191.6 130.043C191.736 129.983 191.855 129.889 191.946 129.771C192.037 129.652 192.096 129.513 192.119 129.365C192.142 129.218 192.127 129.067 192.076 128.927C192.291 128.919 192.495 128.835 192.654 128.69C192.813 128.545 192.915 128.349 192.943 128.136C192.967 127.921 192.917 127.704 192.799 127.522C192.682 127.341 192.506 127.205 192.3 127.138C192.651 127.024 192.958 126.801 193.176 126.503C193.395 126.205 193.515 125.846 193.518 125.476C193.522 125.106 193.409 124.745 193.197 124.442C192.984 124.14 192.682 123.912 192.332 123.79C192.2 123.739 192.057 123.723 191.917 123.743C191.776 123.763 191.644 123.819 191.531 123.904C191.476 123.952 191.433 124.01 191.403 124.075C191.373 124.141 191.358 124.212 191.358 124.283C191.358 124.355 191.373 124.426 191.403 124.492C191.433 124.557 191.476 124.615 191.531 124.662C191.626 124.325 191.611 123.966 191.488 123.638C191.364 123.311 191.138 123.031 190.844 122.841C190.542 122.681 190.195 122.633 189.861 122.705C189.528 122.776 189.231 122.964 189.022 123.234C189.122 123.085 189.176 122.909 189.176 122.729C189.176 122.55 189.122 122.374 189.022 122.225C188.925 122.083 188.783 121.977 188.62 121.923C188.457 121.869 188.28 121.87 188.117 121.925C188.077 121.7 187.954 121.498 187.772 121.36C187.59 121.221 187.363 121.156 187.135 121.178C186.91 121.228 186.71 121.359 186.574 121.546C186.438 121.732 186.374 121.962 186.394 122.192C186.376 122.103 186.332 122.021 186.267 121.956C186.202 121.892 186.119 121.849 186.03 121.832C185.94 121.815 185.848 121.825 185.764 121.861C185.68 121.897 185.609 121.957 185.559 122.034C185.336 121.963 185.658 122.088 185.658 122.088Z" fill="#EBEBEB"/>
<path d="M185.819 126.446C185.73 126.38 185.629 126.332 185.521 126.306C185.414 126.28 185.302 126.275 185.192 126.293C185.084 126.314 184.985 126.365 184.905 126.44C184.825 126.516 184.767 126.612 184.74 126.718C184.717 126.826 184.736 126.939 184.793 127.034C184.849 127.129 184.939 127.199 185.045 127.231C185.301 127.296 185.563 127.078 185.825 127.116C185.923 127.116 186.01 127.176 186.103 127.198C186.302 127.221 186.503 127.198 186.692 127.132C186.881 127.066 187.052 126.958 187.194 126.816C187.311 126.742 187.413 126.646 187.494 126.533C187.534 126.476 187.559 126.41 187.565 126.341C187.57 126.272 187.557 126.202 187.526 126.14C187.465 126.066 187.384 126.01 187.292 125.98C187.2 125.95 187.102 125.947 187.008 125.971C186.621 126.014 186.253 126.167 185.95 126.413L185.978 126.233L185.819 126.446Z" fill="#FAFAFA"/>
<path d="M191.344 126.119C191.247 126.038 191.134 125.978 191.012 125.945C190.951 125.926 190.887 125.925 190.826 125.941C190.766 125.958 190.711 125.991 190.668 126.037C190.625 126.112 190.611 126.201 190.629 126.285C190.647 126.37 190.696 126.445 190.766 126.495C190.909 126.591 191.074 126.648 191.246 126.659C191.426 126.686 191.644 126.692 191.731 126.539C191.757 126.48 191.763 126.414 191.748 126.351C191.734 126.288 191.699 126.232 191.65 126.19C191.549 126.109 191.432 126.052 191.306 126.021L191.344 126.119Z" fill="#FAFAFA"/>
<path d="M182.617 123.245C182.441 123.32 182.286 123.436 182.164 123.583C182.042 123.73 181.956 123.904 181.914 124.09C181.893 124.144 181.889 124.202 181.903 124.258C181.916 124.313 181.947 124.363 181.99 124.401C182.028 124.417 182.069 124.426 182.11 124.426C182.151 124.426 182.192 124.417 182.23 124.401L183.239 124.161C183.074 124.214 182.921 124.297 182.786 124.407C182.719 124.46 182.667 124.531 182.636 124.612C182.605 124.692 182.597 124.78 182.612 124.865C182.645 124.961 182.708 125.044 182.793 125.101C182.878 125.159 182.979 125.186 183.081 125.181C183.281 125.164 183.472 125.086 183.626 124.957C183.72 124.903 183.801 124.829 183.863 124.739C183.924 124.649 183.964 124.547 183.98 124.439C183.98 124.227 183.708 124.025 183.544 124.161C183.931 124.056 184.299 123.89 184.635 123.67C184.757 123.594 184.862 123.494 184.946 123.376C184.987 123.316 185.011 123.246 185.017 123.173C185.023 123.1 185.009 123.027 184.978 122.961C184.635 122.334 184.199 123.256 183.986 123.338C183.588 123.496 183.13 123.027 182.617 123.245Z" fill="#FAFAFA"/>
<path d="M181.05 125.922C181.029 125.983 181.026 126.049 181.042 126.112C181.057 126.175 181.091 126.232 181.137 126.276C181.162 126.295 181.191 126.309 181.221 126.315C181.251 126.322 181.283 126.323 181.313 126.317C181.344 126.31 181.372 126.298 181.398 126.28C181.423 126.261 181.444 126.238 181.459 126.211C181.226 126.255 181.014 126.373 180.854 126.549C180.817 126.594 180.791 126.647 180.777 126.704C180.763 126.761 180.762 126.82 180.773 126.877C180.785 126.934 180.809 126.988 180.843 127.035C180.878 127.082 180.923 127.121 180.974 127.149C181.047 127.162 181.122 127.16 181.194 127.143C181.266 127.126 181.334 127.095 181.394 127.051C181.76 126.852 182.108 126.622 182.435 126.364C182.337 126.598 182.577 126.86 182.828 126.909C183.083 126.904 183.329 126.818 183.531 126.664C183.799 126.5 184.077 126.255 184.033 125.955C183.98 125.833 183.884 125.734 183.764 125.678C183.643 125.622 183.506 125.612 183.379 125.649C183.128 125.754 182.908 125.921 182.741 126.135C182.883 125.933 182.686 125.622 182.435 125.589C182.314 125.583 182.193 125.607 182.083 125.658C181.972 125.709 181.876 125.787 181.803 125.884C182.086 125.726 182.146 125.338 181.77 125.278C181.519 125.218 181.105 125.72 181.05 125.922Z" fill="#FAFAFA"/>
<path d="M188.766 125.022C188.712 125.004 188.655 124.997 188.599 125.001C188.542 125.006 188.486 125.021 188.436 125.047C188.385 125.073 188.34 125.109 188.303 125.152C188.266 125.195 188.238 125.246 188.221 125.3C188.21 125.355 188.21 125.411 188.22 125.466C188.231 125.521 188.253 125.573 188.283 125.62C188.314 125.666 188.354 125.706 188.4 125.737C188.447 125.769 188.499 125.79 188.554 125.801C188.388 125.818 188.236 125.898 188.128 126.025C188.097 126.059 188.072 126.1 188.056 126.144C188.04 126.188 188.033 126.235 188.036 126.281C188.053 126.348 188.092 126.406 188.146 126.448C188.2 126.489 188.267 126.511 188.336 126.51C188.475 126.504 188.611 126.467 188.734 126.401C188.597 126.4 188.462 126.438 188.347 126.51C188.318 126.529 188.294 126.554 188.275 126.583C188.257 126.612 188.245 126.644 188.239 126.677C188.233 126.711 188.235 126.746 188.243 126.779C188.251 126.812 188.266 126.843 188.287 126.87C188.333 126.903 188.387 126.923 188.443 126.928C188.499 126.934 188.556 126.925 188.608 126.903C188.858 126.837 189.086 126.709 189.274 126.532C189.34 126.612 189.423 126.674 189.518 126.715C189.613 126.756 189.716 126.773 189.819 126.767C189.87 126.759 189.919 126.741 189.963 126.714C190.006 126.686 190.044 126.65 190.074 126.608C190.103 126.566 190.124 126.518 190.135 126.467C190.145 126.417 190.145 126.365 190.135 126.314C190.106 126.245 190.059 126.185 189.999 126.141C189.938 126.096 189.866 126.07 189.792 126.063C189.642 126.055 189.491 126.078 189.35 126.129C189.508 126.042 189.632 125.906 189.704 125.742C189.759 125.572 189.644 125.343 189.464 125.36C189.284 125.376 189.165 125.643 189.006 125.742C188.826 125.562 189.192 125.18 188.766 125.022Z" fill="#FAFAFA"/>
<path d="M185.164 124.187C185.057 124.274 184.974 124.387 184.922 124.515C184.871 124.642 184.853 124.781 184.869 124.918C184.869 125.071 184.91 125.221 184.986 125.353C185.063 125.485 185.173 125.595 185.306 125.671C185.4 125.7 185.499 125.709 185.597 125.697C185.695 125.684 185.79 125.651 185.874 125.6C185.958 125.548 186.03 125.479 186.086 125.397C186.141 125.315 186.178 125.223 186.195 125.125C186.215 124.926 186.173 124.726 186.076 124.551C185.978 124.377 185.829 124.236 185.649 124.149C185.571 124.117 185.486 124.104 185.402 124.111C185.318 124.118 185.236 124.144 185.164 124.187Z" fill="#FAFAFA"/>
<path d="M187.715 123.86L187.807 123.941C187.769 123.89 187.72 123.847 187.664 123.815C187.609 123.783 187.547 123.764 187.483 123.757C187.419 123.751 187.354 123.759 187.293 123.779C187.232 123.799 187.176 123.832 187.129 123.876C187.081 123.92 187.044 123.973 187.018 124.032C186.993 124.091 186.98 124.154 186.98 124.219C186.981 124.283 186.995 124.346 187.022 124.405C187.049 124.463 187.088 124.515 187.136 124.558C187.232 124.639 187.356 124.68 187.482 124.67C187.607 124.661 187.724 124.603 187.807 124.509C187.938 124.573 188.086 124.594 188.23 124.567C188.373 124.541 188.504 124.469 188.603 124.361C188.688 124.246 188.725 124.102 188.704 123.96C188.684 123.818 188.608 123.69 188.494 123.603C188.431 123.573 188.361 123.558 188.291 123.561C188.221 123.564 188.153 123.584 188.092 123.619C188.032 123.655 187.981 123.705 187.945 123.765C187.908 123.825 187.887 123.893 187.884 123.963L187.774 123.843L187.715 123.86Z" fill="#FAFAFA"/>
<path d="M190.534 124.319C190.337 124.48 190.186 124.691 190.098 124.93C190.06 125.051 190.068 125.182 190.121 125.297C190.175 125.412 190.27 125.503 190.387 125.552C190.632 125.612 190.861 125.41 191.003 125.203C191.074 125.113 191.123 125.009 191.149 124.898C191.174 124.786 191.175 124.671 191.15 124.559C191.08 124.341 190.769 124.216 190.605 124.379L190.534 124.319Z" fill="#FAFAFA"/>
<path d="M186.472 122.84C186.446 122.791 186.41 122.748 186.367 122.713C186.324 122.678 186.274 122.652 186.221 122.637C186.167 122.622 186.111 122.617 186.056 122.624C186.001 122.631 185.948 122.649 185.9 122.676C185.806 122.741 185.737 122.836 185.705 122.945C185.672 123.054 185.677 123.171 185.72 123.276C185.768 123.383 185.844 123.474 185.94 123.541C186.036 123.607 186.149 123.646 186.265 123.653C186.538 123.68 186.865 123.456 186.811 123.184C186.876 123.262 186.961 123.322 187.056 123.357C187.152 123.393 187.255 123.402 187.356 123.385C187.55 123.354 187.735 123.284 187.901 123.178C188.136 123.042 188.381 122.84 188.359 122.573C188.342 122.466 188.289 122.368 188.209 122.296C188.128 122.224 188.026 122.181 187.918 122.175C187.811 122.17 187.704 122.186 187.603 122.224C187.503 122.261 187.411 122.319 187.334 122.393C187.209 122.502 187.1 122.633 186.963 122.731C186.898 122.785 186.819 122.819 186.735 122.831C186.652 122.842 186.566 122.83 186.489 122.796L186.472 122.84Z" fill="#FAFAFA"/>
<path d="M189.941 135.241H182.955L182.273 128.201H190.622L189.941 135.241Z" fill="#F0F0F0"/>
<path d="M191.166 128.567H181.661L181.492 127.629H191.335L191.166 128.567Z" fill="#FAFAFA"/>
<path d="M182.684 156.417H174.668L177.182 148.324L177.547 147.146H179.363L182.684 156.417Z" fill="#EBEBEB"/>
<path d="M177.547 147.146L177.181 148.324L174.667 156.417L167.256 156.308L164.873 148.324L164.508 147.146H177.547Z" fill="#E0E0E0"/>
<path d="M177.549 147.146L177.183 148.324L174.669 156.417L159.449 156.194L162.694 147.146H177.549Z" fill="#FAFAFA"/>
<path d="M177.548 147.146L177.183 148.324H162.273L162.693 147.146H177.548Z" fill="#EBEBEB"/>
<path d="M164.566 152.168H161.223L162.39 148.896L165.585 148.929L164.566 152.168ZM161.61 151.896H164.336L165.187 149.169L162.553 149.142L161.61 151.896Z" fill="#EBEBEB"/>
<path d="M168.308 152.168H164.965L166.126 148.896L169.327 148.929L168.308 152.168ZM165.347 151.896H168.106L168.957 149.169L166.323 149.142L165.347 151.896Z" fill="#EBEBEB"/>
<path d="M172.042 152.168H168.699L169.866 148.896L173.062 148.929L172.042 152.168ZM169.086 151.896H171.846L172.691 149.169L170.057 149.142L169.086 151.896Z" fill="#EBEBEB"/>
<path d="M175.784 152.168H172.441L173.608 148.896L176.804 148.929L175.784 152.168ZM172.829 151.896H175.599L176.45 149.169L173.816 149.142L172.829 151.896Z" fill="#EBEBEB"/>
<path d="M163.398 155.665H160.055L161.222 152.393L164.417 152.431L163.398 155.665ZM160.442 155.392H163.196L164.047 152.665H161.413L160.442 155.392Z" fill="#EBEBEB"/>
<path d="M167.14 155.665H163.797L164.964 152.393L168.16 152.431L167.14 155.665ZM164.184 155.392H166.938L167.789 152.665H165.155L164.184 155.392Z" fill="#EBEBEB"/>
<path d="M170.874 155.665H167.531L168.698 152.393L171.894 152.431L170.874 155.665ZM167.918 155.392H170.689L171.539 152.665H168.9L167.918 155.392Z" fill="#EBEBEB"/>
<path d="M174.616 155.665H171.273L172.44 152.393L175.636 152.431L174.616 155.665ZM171.661 155.392H174.415L175.265 152.665H172.631L171.661 155.392Z" fill="#EBEBEB"/>
<path d="M225.336 130.873C225.336 132.591 225.609 133.704 226.061 134.418C226.236 134.679 226.473 134.893 226.751 135.038C227.029 135.184 227.34 135.258 227.654 135.252H230.129C230.443 135.257 230.752 135.184 231.029 135.038C231.307 134.892 231.543 134.679 231.716 134.418C232.174 133.704 232.442 132.591 232.442 130.873C232.442 128.381 231.351 126.385 231.002 124.793C230.871 124.22 231.296 122.459 231.296 122.459H226.47C226.47 122.459 226.896 124.22 226.765 124.793C226.421 126.385 225.336 128.381 225.336 130.873Z" fill="#F0F0F0"/>
<path d="M230.505 110.43C230.001 110.57 229.552 110.861 229.218 111.264C228.744 111.897 229.562 113.38 229.562 113.38C229.788 113.601 230.062 113.765 230.364 113.86C230.665 113.955 230.984 113.977 231.296 113.925L232.261 113.691C232.261 113.691 231.22 110.811 230.511 110.621L230.505 110.43Z" fill="#EBEBEB"/>
<path d="M234.3 111.121C234.175 112.392 233.106 113.815 231.972 113.706C230.838 113.597 230.08 111.977 230.205 110.712C230.33 109.447 231.257 109.491 232.386 109.622C233.515 109.752 234.431 109.856 234.3 111.121Z" fill="#EBEBEB"/>
<path d="M231.111 110.141C231.111 110.141 231.836 110.98 233.663 110.915C233.663 110.915 230.549 112.235 231.111 110.141Z" fill="#EBEBEB"/>
<path d="M231.91 110.036C231.91 110.036 232.924 110.036 232.864 110.462C232.864 110.462 233.704 110.571 233.655 110.2C233.606 109.829 231.91 110.036 231.91 110.036Z" fill="#EBEBEB"/>
<path d="M231.111 110.141C231.111 110.141 231.836 110.98 233.663 110.915C233.663 110.915 230.549 112.235 231.111 110.141Z" fill="#E0E0E0"/>
<path d="M231.91 110.036C231.91 110.036 232.924 110.036 232.864 110.462C232.864 110.462 233.704 110.571 233.655 110.2C233.606 109.829 231.91 110.036 231.91 110.036Z" fill="#E0E0E0"/>
<path d="M230.031 113.746C230.166 114.063 230.388 114.336 230.67 114.533C230.953 114.731 231.285 114.845 231.629 114.864C231.973 114.877 232.316 114.818 232.637 114.692C232.957 114.565 233.247 114.373 233.489 114.127C233.969 113.633 234.305 113.016 234.459 112.344C234.503 112.17 234.601 111.739 234.383 111.624C234.165 111.51 233.996 111.793 233.876 111.913C233.528 112.259 233.144 112.566 232.731 112.83C232.325 113.087 231.889 113.294 231.433 113.446C231.307 113.489 230.075 113.86 230.031 113.746Z" fill="#EBEBEB"/>
<path d="M235.278 112.158C235.333 112.432 235.317 112.716 235.231 112.983C235.145 113.249 234.993 113.489 234.787 113.68C234.507 113.92 234.183 114.105 233.833 114.225C233.593 114.312 233.288 114.383 233.108 114.225C232.928 114.067 232.993 113.707 233.108 113.45C233.266 113.058 233.43 112.671 233.61 112.283C233.737 111.895 233.921 111.528 234.155 111.193C234.384 110.964 234.613 111.193 234.853 111.411C235.059 111.618 235.206 111.876 235.278 112.158Z" fill="#EBEBEB"/>
<path d="M230.447 113.106C230.235 113.054 230.041 112.942 229.89 112.783C229.738 112.625 229.635 112.427 229.591 112.212C229.531 111.89 229.673 111.121 230.077 111.121C230.074 111.8 230.2 112.474 230.447 113.106Z" fill="#E0E0E0"/>
<path d="M233.516 113.33C233.731 113.309 233.937 113.235 234.117 113.116C234.297 112.996 234.444 112.833 234.546 112.643C234.655 112.43 234.786 111.274 234.355 111.689C234.214 111.825 234.143 112.332 234.045 112.523C233.902 112.813 233.724 113.084 233.516 113.33Z" fill="#E0E0E0"/>
<path d="M231.829 113.739C231.965 113.9 232.149 114.011 232.355 114.056C232.56 114.1 232.774 114.075 232.964 113.985C232.882 114.197 232.151 114.252 231.927 114.274C231.333 114.334 231.088 114.028 230.586 113.701C230.586 113.701 231.42 113.996 231.829 113.739Z" fill="#E0E0E0"/>
<path d="M228.227 133.884L229.623 119.803L231.466 114.803L231.788 114.923L229.95 119.896L228.494 134.271L228.227 133.884Z" fill="#E6E6E6"/>
<path d="M229.937 119.775L229.632 119.928C229.412 119.452 229.23 118.96 229.087 118.455C228.82 117.457 228.426 116.496 227.914 115.598L228.203 115.418C228.731 116.34 229.138 117.326 229.414 118.352C229.553 118.838 229.728 119.314 229.937 119.775Z" fill="#E6E6E6"/>
<path d="M230.675 117.928C231.153 117.893 231.603 117.686 231.94 117.345C232.295 116.935 232.56 116.456 232.72 115.938C232.098 116.003 231.526 115.6 230.904 115.556C230.656 115.54 230.408 115.581 230.178 115.676C229.949 115.77 229.744 115.916 229.579 116.101C229.159 116.592 228.913 117.192 229.142 117.486C229.576 117.828 230.126 117.987 230.675 117.928Z" fill="#F0F0F0"/>
<path d="M225.704 116.401C225.993 116.204 226.322 116.074 226.667 116.019C227.012 115.965 227.365 115.987 227.7 116.084C227.965 116.185 228.202 116.347 228.392 116.557C228.582 116.768 228.719 117.021 228.791 117.295C228.667 117.454 228.503 117.577 228.316 117.65C228.129 117.724 227.926 117.747 227.727 117.715C227.33 117.642 226.95 117.498 226.604 117.29C226.257 117.083 225.877 116.939 225.48 116.864L225.704 116.401Z" fill="#F0F0F0"/>
<path d="M228.775 116.667C227.968 116.76 227.243 116.918 226.506 116.002C226.016 115.386 226.174 114.453 226.206 113.717C227.12 114.008 228.005 114.383 228.851 114.835C229.033 114.916 229.193 115.038 229.32 115.191C229.446 115.345 229.536 115.525 229.582 115.718C229.608 115.907 229.562 116.098 229.453 116.254C229.344 116.41 229.179 116.518 228.993 116.558L228.775 116.667Z" fill="#F0F0F0"/>
<path d="M226.463 127.63C226.07 128.539 225.884 129.524 225.918 130.515C225.918 130.7 225.994 130.913 226.131 130.945C226.267 130.978 226.376 130.825 226.42 130.656C226.454 130.477 226.465 130.293 226.453 130.111C226.453 128.6 227.271 127.324 227.429 125.852C227.472 125.432 227.363 124.112 227.118 125.083C226.916 125.972 226.763 126.779 226.463 127.63Z" fill="#FAFAFA"/>
<path d="M112.213 157.634C112.213 157.634 113.8 140.069 106.82 131.507C99.8395 122.946 112.273 130.738 114.454 139.278C114.454 139.278 114.863 123.464 107.91 113.239C100.957 103.014 112.818 110.665 114.885 121.833C114.885 121.833 115.283 107.731 111.804 100.26C108.325 92.7888 113.511 97.2333 115.807 101.896C118.103 106.558 116.968 118.992 116.968 118.992C116.968 118.992 119.406 96.0335 124.058 97.2769C128.709 98.5203 119.068 114.537 118.299 122.362C118.299 122.362 122.509 111.456 126.703 113.092C130.896 114.728 120.862 117.04 117.759 132.914L116.832 140.26C116.832 140.26 120.649 129.539 124.118 132.358C127.586 135.177 115.638 142.207 114.302 157.918L112.213 157.634Z" fill="#EBEBEB"/>
<path d="M112.967 158.544C112.967 158.544 111.479 136.823 120.318 126.473C129.158 116.122 113.616 125.355 110.671 135.825C110.671 135.825 110.584 116.313 119.457 103.901C128.329 91.4896 113.458 100.569 110.617 114.263C110.617 114.263 110.508 96.8557 114.98 87.7432C119.451 78.6307 112.951 83.9532 109.995 89.6464C107.04 95.3397 108.114 110.669 108.114 110.669C108.114 110.669 105.714 82.2626 99.972 83.6478C94.2297 85.0329 105.665 105.101 106.407 114.77C106.407 114.77 101.499 101.18 96.2856 103.089C91.0722 104.997 103.375 108.15 106.783 127.836L107.727 136.987C107.727 136.987 103.32 123.642 98.9523 127.002C94.5841 130.361 109.15 139.424 110.404 158.86L112.967 158.544Z" fill="#F0F0F0"/>
<path d="M126.703 169.375C126.703 175.335 120.241 180.172 112.268 180.172C104.296 180.172 97.8281 175.335 97.8281 169.375C97.8281 166.686 99.1369 164.237 101.307 162.351L99.6005 155.125H124.931L123.246 162.351C125.395 164.254 126.703 166.686 126.703 169.375Z" fill="#EBEBEB"/>
<path d="M136.332 203.524C194.727 203.524 242.066 200.76 242.066 197.351C242.066 193.942 194.727 191.178 136.332 191.178C77.9365 191.178 30.5977 193.942 30.5977 197.351C30.5977 200.76 77.9365 203.524 136.332 203.524Z" fill="#F5F5F5"/>
<path d="M127.645 110.811L129.008 102.947L131.685 103.722L127.645 110.811Z" fill="#407BFF"/>
<path d="M128.543 113.33L136.21 111.111L135.141 108.531L128.543 113.33Z" fill="#407BFF"/>
<path d="M129.906 110.37L134.274 102.113L137.219 104.158L129.906 110.37Z" fill="#407BFF"/>
<path d="M179.256 33.745H171.31C170.978 33.7235 170.667 33.5766 170.44 33.334C170.212 33.0914 170.086 32.7714 170.086 32.4389C170.086 32.1064 170.212 31.7864 170.44 31.5438C170.667 31.3012 170.978 31.1543 171.31 31.1328H179.256C179.588 31.1543 179.899 31.3012 180.126 31.5438C180.354 31.7864 180.48 32.1064 180.48 32.4389C180.48 32.7714 180.354 33.0914 180.126 33.334C179.899 33.5766 179.588 33.7235 179.256 33.745Z" fill="#407BFF"/>
<g opacity="0.7">
<path d="M179.256 33.745H171.31C170.978 33.7235 170.667 33.5766 170.44 33.334C170.212 33.0914 170.086 32.7714 170.086 32.4389C170.086 32.1064 170.212 31.7864 170.44 31.5438C170.667 31.3012 170.978 31.1543 171.31 31.1328H179.256C179.588 31.1543 179.899 31.3012 180.126 31.5438C180.354 31.7864 180.48 32.1064 180.48 32.4389C180.48 32.7714 180.354 33.0914 180.126 33.334C179.899 33.5766 179.588 33.7235 179.256 33.745Z" fill="white"/>
</g>
<path d="M208.405 60.5258L177.943 116.586C177.754 116.932 177.435 117.189 177.057 117.3C176.679 117.412 176.272 117.369 175.925 117.18L124.092 88.9975C123.746 88.8085 123.489 88.4899 123.377 88.1116C123.266 87.7333 123.309 87.3263 123.497 86.9798L163.116 14.0799C163.305 13.7338 163.623 13.4768 164.001 13.3654C164.38 13.2539 164.787 13.2971 165.133 13.4855L200.034 32.463L208.405 60.5258Z" fill="#407BFF"/>
<g opacity="0.2">
<path d="M208.405 60.5258L177.943 116.586C177.754 116.932 177.435 117.189 177.057 117.3C176.679 117.412 176.272 117.369 175.925 117.18L124.092 88.9975C123.746 88.8085 123.489 88.4899 123.377 88.1116C123.266 87.7333 123.309 87.3263 123.497 86.9798L163.116 14.0799C163.305 13.7338 163.623 13.4768 164.001 13.3654C164.38 13.2539 164.787 13.2971 165.133 13.4855L200.034 32.463L208.405 60.5258Z" fill="white"/>
</g>
<path d="M191.301 73.1158L152.59 52.2285L151.295 54.6281L190.006 75.5154L191.301 73.1158Z" fill="#407BFF"/>
<path d="M186.016 82.9185L147.305 62.0312L146.01 64.4309L184.721 85.3181L186.016 82.9185Z" fill="#407BFF"/>
<path d="M180.723 92.7271L142.012 71.8398L140.717 74.2395L179.428 95.1267L180.723 92.7271Z" fill="#407BFF"/>
<path d="M200.106 32.4355L190.923 49.3408C190.735 49.6873 190.691 50.0943 190.803 50.4726C190.914 50.8509 191.171 51.1695 191.517 51.3585L208.374 60.5201L200.106 32.4355Z" fill="#407BFF"/>
<path opacity="0.7" d="M200.106 32.4355L190.923 49.3408C190.735 49.6873 190.691 50.0943 190.803 50.4726C190.914 50.8509 191.171 51.1695 191.517 51.3585L208.374 60.5201L200.106 32.4355Z" fill="white"/>
<path d="M216.345 58.6398L185.889 114.7C185.7 115.046 185.381 115.303 185.003 115.414C184.625 115.526 184.217 115.483 183.871 115.294L132.037 87.1333C131.69 86.9453 131.432 86.6271 131.32 86.2487C131.207 85.8703 131.249 85.4627 131.437 85.1156L171.056 12.1994C171.244 11.8523 171.562 11.5941 171.94 11.4817C172.319 11.3692 172.726 11.4116 173.073 11.5995L208.002 30.577L216.345 58.6398Z" fill="#407BFF"/>
<g opacity="0.5">
<path d="M216.345 58.6398L185.889 114.7C185.7 115.046 185.381 115.303 185.003 115.414C184.625 115.526 184.217 115.483 183.871 115.294L132.037 87.1333C131.69 86.9453 131.432 86.6271 131.32 86.2487C131.207 85.8703 131.249 85.4627 131.437 85.1156L171.056 12.1994C171.244 11.8523 171.562 11.5941 171.94 11.4817C172.319 11.3692 172.726 11.4116 173.073 11.5995L208.002 30.577L216.345 58.6398Z" fill="white"/>
</g>
<path d="M198.223 70.6642L161.577 50.8959C161.442 50.8223 161.294 50.7762 161.14 50.7602C160.987 50.7442 160.832 50.7587 160.685 50.8028C160.537 50.8469 160.4 50.9198 160.281 51.0172C160.162 51.1146 160.063 51.2346 159.99 51.3704L159.81 51.703C159.737 51.8386 159.69 51.9875 159.674 52.141C159.658 52.2946 159.673 52.4498 159.717 52.5977C159.761 52.7457 159.834 52.8835 159.931 53.0032C160.029 53.1229 160.149 53.2222 160.285 53.2954L196.931 73.0636C197.204 73.2108 197.525 73.2435 197.823 73.1546C198.12 73.0656 198.37 72.8623 198.518 72.5892L198.698 72.2511C198.771 72.1159 198.818 71.9674 198.834 71.8143C198.85 71.6612 198.835 71.5064 198.791 71.3589C198.747 71.2114 198.674 71.074 198.577 70.9548C198.479 70.8356 198.359 70.7368 198.223 70.6642Z" fill="#407BFF"/>
<path d="M192.925 80.477L156.278 60.7032C155.708 60.3957 154.997 60.6085 154.689 61.1783L154.508 61.5143C154.201 62.0841 154.413 62.7954 154.983 63.1029L191.63 82.8766C192.2 83.1841 192.911 82.9714 193.219 82.4015L193.4 82.0656C193.708 81.4957 193.495 80.7845 192.925 80.477Z" fill="#407BFF"/>
<path d="M187.636 90.2914L150.989 70.5177C150.419 70.2102 149.708 70.4229 149.4 70.9928L149.219 71.3287C148.912 71.8986 149.124 72.6098 149.694 72.9173L186.341 92.691C186.911 92.9985 187.622 92.7858 187.93 92.216L188.111 91.88C188.419 91.3102 188.206 90.5989 187.636 90.2914Z" fill="#407BFF"/>
<path d="M208.05 30.5547L198.861 47.46C198.767 47.6313 198.708 47.8194 198.688 48.0136C198.667 48.2077 198.686 48.404 198.741 48.5912C198.797 48.7783 198.889 48.9525 199.013 49.1037C199.136 49.2549 199.289 49.3802 199.461 49.4722L216.317 58.6338L208.05 30.5547Z" fill="#407BFF"/>
<path opacity="0.7" d="M208.05 30.5547L198.861 47.46C198.767 47.6313 198.708 47.8194 198.688 48.0136C198.667 48.2077 198.686 48.404 198.741 48.5912C198.797 48.7783 198.889 48.9525 199.013 49.1037C199.136 49.2549 199.289 49.3802 199.461 49.4722L216.317 58.6338L208.05 30.5547Z" fill="white"/>
<path d="M205.945 4.85352L208.508 16.2346C198.801 18.8958 190.092 28.5045 183.826 37.5788C181.262 41.347 179.2 45.4332 177.691 49.7343C177.691 49.7343 197.269 32.0274 208.061 30.9912L207.543 49.7997C207.543 49.7997 218.738 27.9865 240.47 20.0246C240.492 20.0192 222.267 6.90941 205.945 4.85352Z" fill="#407BFF"/>
<path d="M137.807 165.308L141.695 162.085L131.89 152.781L127.707 156.353L137.807 165.308Z" fill="#CB7A63"/>
<path d="M144.849 160.84C144.405 160.711 143.931 160.734 143.502 160.905C143.24 160.981 142.957 161.074 142.728 161.161C142.499 161.249 142.362 161.303 142.215 161.363L141.784 161.554C141.759 161.56 141.736 161.575 141.72 161.596C141.704 161.617 141.696 161.642 141.697 161.668C141.693 161.677 141.691 161.686 141.691 161.696C141.691 161.705 141.693 161.714 141.697 161.723C141.715 161.75 141.742 161.769 141.773 161.778C142.325 161.923 142.889 162.019 143.458 162.067C143.738 162.102 144.022 162.08 144.293 162.001H144.331C144.487 161.95 144.636 161.882 144.778 161.799C144.868 161.728 144.938 161.635 144.983 161.529C145.027 161.423 145.045 161.308 145.034 161.194C145.035 161.124 145.019 161.055 144.987 160.993C144.954 160.931 144.907 160.879 144.849 160.84ZM144.794 161.199C144.808 161.277 144.799 161.356 144.769 161.428C144.739 161.501 144.689 161.563 144.625 161.608C144.495 161.702 144.343 161.762 144.184 161.783C143.964 161.822 143.741 161.835 143.518 161.821C143.17 161.802 142.824 161.758 142.482 161.69L142.226 161.641C142.691 161.419 143.179 161.249 143.682 161.134C143.955 161.065 144.231 161.014 144.511 160.981C144.591 160.977 144.67 160.996 144.74 161.036C144.764 161.054 144.783 161.08 144.792 161.109C144.802 161.138 144.803 161.17 144.794 161.199Z" fill="#407BFF"/>
<path d="M143.064 158.802C142.94 158.824 142.821 158.871 142.715 158.94C142.609 159.01 142.518 159.1 142.448 159.205C142.404 159.27 142.365 159.34 142.334 159.412C142.127 160.046 142.085 160.722 142.214 161.376C142.216 161.385 142.216 161.394 142.214 161.403C142.218 161.424 142.228 161.444 142.242 161.46C142.257 161.476 142.275 161.488 142.296 161.496C142.308 161.501 142.321 161.504 142.334 161.504C142.347 161.504 142.36 161.501 142.372 161.496C142.382 161.495 142.391 161.493 142.4 161.488C142.408 161.483 142.416 161.476 142.421 161.468C142.529 161.377 142.629 161.276 142.721 161.168C142.893 160.964 143.048 160.745 143.184 160.514C143.523 159.969 143.762 159.341 143.615 159.02C143.561 158.878 143.419 158.736 143.064 158.802ZM143.392 159.129C143.484 159.336 143.299 159.827 143.026 160.307C142.86 160.6 142.663 160.874 142.437 161.125C142.362 160.63 142.388 160.126 142.514 159.641C142.545 159.536 142.593 159.437 142.655 159.347C142.746 159.214 142.878 159.116 143.032 159.069H143.108C143.337 159.003 143.381 159.091 143.419 159.118L143.392 159.129Z" fill="#407BFF"/>
<path d="M141.19 161.856L136.282 164.321C136.189 164.365 136.115 164.44 136.073 164.534C136.031 164.628 136.024 164.734 136.053 164.833L137.493 169.403C137.528 169.511 137.585 169.61 137.659 169.696C137.733 169.781 137.824 169.851 137.925 169.902C138.026 169.953 138.137 169.983 138.25 169.991C138.363 169.999 138.476 169.984 138.583 169.948L138.665 169.91C147.036 166.971 149.605 164.888 150.477 164.413C152.969 163.055 151.568 161.289 150.641 161.507C146.463 162.505 145.062 162.248 143.257 161.785C142.572 161.641 141.863 161.665 141.19 161.856Z" fill="#263238"/>
<path opacity="0.2" d="M131.895 152.785L136.858 157.186L132.67 160.752L127.707 156.352L131.895 152.785Z" fill="black"/>
<path d="M130.35 160.72L136.594 154.961L135.22 152.551L128 158.751L130.35 160.72Z" fill="#407BFF"/>
<path opacity="0.5" d="M130.35 160.72L136.594 154.961L135.22 152.551L128 158.751L130.35 160.72Z" fill="white"/>
<path d="M134.236 153.396L133.396 154.116L132.147 155.207L131.422 155.823L129.241 157.71L128.821 158.064C128.821 158.064 119.926 153.053 114.975 148.794C111.588 145.865 111.283 144.769 110.923 145.042C106.14 148.684 91.9835 161.26 83.9617 167.798C83.6999 167.831 83.4163 167.853 83.1764 167.875C78.8901 168.186 75.5417 167.717 72.9023 166.719C72.9023 163.239 75.8526 155.114 76.098 154.329C76.098 154.329 87.9371 142.566 107.122 132.619C107.31 132.523 107.503 132.438 107.7 132.363C107.945 132.248 108.197 132.146 108.452 132.057C109.391 131.683 110.383 131.459 111.392 131.392C112.24 131.358 113.087 131.491 113.884 131.785C114.342 131.947 114.787 132.144 115.215 132.374C115.59 132.568 115.954 132.782 116.305 133.017C116.9 133.393 117.472 133.813 118.012 134.228C119.239 135.177 128.504 147.114 133.483 152.622C133.75 152.878 134.001 153.151 134.236 153.396Z" fill="#407BFF"/>
<g opacity="0.1">
<path d="M134.236 153.396L133.396 154.116L132.147 155.207L131.422 155.823L129.241 157.71L128.821 158.064C128.821 158.064 119.926 153.053 114.975 148.794C111.588 145.865 111.283 144.769 110.923 145.042C106.14 148.684 91.9835 161.26 83.9617 167.798C83.6999 167.831 83.4163 167.853 83.1764 167.875C78.8901 168.186 75.5417 167.717 72.9023 166.719C72.9023 163.239 75.8526 155.114 76.098 154.329C76.098 154.329 87.9371 142.566 107.122 132.619C107.31 132.523 107.503 132.438 107.7 132.363C107.945 132.248 108.197 132.146 108.452 132.057C109.391 131.683 110.383 131.459 111.392 131.392C112.24 131.358 113.087 131.491 113.884 131.785C114.342 131.947 114.787 132.144 115.215 132.374C115.59 132.568 115.954 132.782 116.305 133.017C116.9 133.393 117.472 133.813 118.012 134.228C119.239 135.177 128.504 147.114 133.483 152.622C133.75 152.878 134.001 153.151 134.236 153.396Z" fill="black"/>
</g>
<path d="M71.0618 103.178C71.8144 106.57 72.5996 111.527 70.2656 113.861C73.1635 118.952 76.6404 123.692 80.6269 127.985C85.7367 119.101 80.8941 113.61 80.8941 113.61C77.0768 112.792 77.1259 111.249 77.7258 108.587L71.0618 103.178Z" fill="#CB7A63"/>
<path d="M67.8984 114.275C68.1763 113.358 68.752 112.559 69.5344 112.006C70.3033 111.423 78.2597 111.335 80.3047 112.006C81.5108 112.388 82.5364 113.197 83.1895 114.28L67.8984 114.275Z" fill="#407BFF"/>
<path d="M104.525 127.799L106.575 126.861L106.679 130.21C106.088 130.726 105.405 131.127 104.667 131.393C104.436 131.461 104.191 131.467 103.958 131.411C103.724 131.354 103.509 131.237 103.335 131.072C103.161 130.906 103.033 130.697 102.966 130.466C102.898 130.235 102.892 129.991 102.949 129.757C103.05 129.334 103.244 128.939 103.517 128.601C103.789 128.262 104.134 127.989 104.525 127.799Z" fill="#CB7A63"/>
<path d="M109.207 127.805L109.098 129.037C109.083 129.222 109.009 129.398 108.888 129.538C108.766 129.678 108.603 129.776 108.422 129.817L106.666 130.21L106.562 126.861L108.346 126.889C108.458 126.886 108.57 126.907 108.674 126.948C108.779 126.99 108.874 127.052 108.954 127.13C109.034 127.209 109.098 127.303 109.141 127.407C109.185 127.51 109.207 127.621 109.207 127.734V127.805Z" fill="#CB7A63"/>
<path d="M78.4567 137.321C81.7156 138.996 85.4149 139.616 89.0416 139.094C93.4043 138.357 101.039 133.968 104.349 131.459L103.258 129.823C101.622 130.177 88.1037 137.038 79.3838 130.832C77.7478 129.676 71.3729 124.915 69.1207 125.013C65.4615 125.177 65.7778 129.01 67.3483 130.608C69.1643 132.435 75.9318 136.078 78.4567 137.321Z" fill="#CB7A63"/>
<g opacity="0.2">
<path d="M109.097 129.036C109.084 129.22 109.011 129.395 108.891 129.535C108.77 129.674 108.607 129.771 108.427 129.81L106.681 130.209C106.09 130.725 105.408 131.126 104.669 131.392C104.565 131.426 104.457 131.444 104.347 131.446C101.032 133.966 93.4408 138.35 89.0454 139.081C85.4205 139.601 81.7237 138.981 78.466 137.309C75.9411 136.065 69.1627 132.401 67.3249 130.558C65.7543 128.96 65.4381 125.104 69.0972 124.962C71.3494 124.864 77.7298 129.625 79.3604 130.781C87.6821 136.698 100.345 130.732 102.935 129.859C102.932 129.82 102.932 129.779 102.935 129.74C103.03 129.319 103.216 128.924 103.48 128.583C103.753 128.246 104.098 127.974 104.489 127.787L106.523 126.855L108.296 126.882C108.408 126.881 108.519 126.901 108.622 126.943C108.726 126.985 108.821 127.047 108.9 127.126C108.98 127.204 109.043 127.298 109.086 127.401C109.13 127.505 109.152 127.615 109.152 127.727V127.804L109.097 129.036Z" fill="black"/>
<path d="M106.579 126.859L106.562 126.865V126.859H106.579Z" fill="black"/>
</g>
<path d="M89.891 119.755C94.5209 129.958 83.7833 132.876 88.7022 149.607L65.362 150.152C65.5147 141.187 68.7049 143.112 64.5004 126.255C64.1459 124.827 63.557 120.731 65.0784 116.985C65.6601 115.526 66.7298 114.314 68.105 113.555C69.8283 112.628 77.4193 113.353 80.8822 113.587C84.634 113.08 89.2039 118.479 89.891 119.755Z" fill="#407BFF"/>
<path opacity="0.5" d="M89.891 119.755C94.5209 129.958 83.7833 132.876 88.7022 149.607L65.362 150.152C65.5147 141.187 68.7049 143.112 64.5004 126.255C64.1459 124.827 63.557 120.731 65.0784 116.985C65.6601 115.526 66.7298 114.314 68.105 113.555C69.8283 112.628 77.4193 113.353 80.8822 113.587C84.634 113.08 89.2039 118.479 89.891 119.755Z" fill="white"/>
<path d="M85.4314 99.5121C85.366 99.9593 85.5459 100.325 85.8241 100.363C86.1022 100.401 86.3694 100.09 86.4512 99.6594C86.533 99.2286 86.3312 98.8523 86.0531 98.8087C85.775 98.765 85.4914 99.0868 85.4314 99.5121Z" fill="#263238"/>
<path d="M85.9258 98.8152L87.0164 98.668C87.0164 98.668 86.3511 99.3987 85.9258 98.8152Z" fill="#263238"/>
<path d="M85.4988 100.102C85.7369 101.133 86.1187 102.126 86.633 103.052C86.3919 103.177 86.1264 103.247 85.855 103.259C85.5837 103.27 85.3132 103.222 85.0625 103.117L85.4988 100.102Z" fill="#A02724"/>
<path d="M86.9715 96.5129C87.0132 96.4976 87.0499 96.4712 87.0777 96.4367C87.1055 96.4021 87.1235 96.3606 87.1296 96.3166C87.1392 96.2496 87.1224 96.1814 87.0827 96.1265C87.043 96.0716 86.9836 96.0342 86.917 96.0222C86.519 95.9524 86.1101 95.9795 85.7247 96.101C85.3394 96.2224 84.989 96.4348 84.7029 96.7202C84.6738 96.7414 84.6495 96.7685 84.6316 96.7998C84.6137 96.8311 84.6026 96.8657 84.5989 96.9016C84.5953 96.9374 84.5993 96.9736 84.6107 97.0078C84.622 97.042 84.6404 97.0735 84.6647 97.1001C84.689 97.1267 84.7186 97.1479 84.7516 97.1622C84.7847 97.1766 84.8204 97.1839 84.8564 97.1835C84.8924 97.1832 84.928 97.1753 84.9607 97.1603C84.9935 97.1453 85.0227 97.1235 85.0465 97.0965L85.0792 97.0583C85.3091 96.8351 85.5885 96.6693 85.8946 96.5746C86.2007 96.4798 86.5248 96.4587 86.8406 96.5129C86.8835 96.524 86.9286 96.524 86.9715 96.5129Z" fill="#263238"/>
<path d="M71.3055 95.9784C70.8638 101.295 70.5639 103.537 72.827 106.629C76.2408 111.275 82.8775 110.664 84.8843 105.587C86.7112 101.012 87.1256 93.0882 82.2776 90.247C81.4543 89.7597 80.543 89.4395 79.5958 89.3048C78.6487 89.1702 77.6842 89.2237 76.7578 89.4623C75.8313 89.7008 74.961 90.1198 74.1966 90.6952C73.4323 91.2706 72.789 91.9911 72.3035 92.8155C71.7292 93.7778 71.3875 94.8608 71.3055 95.9784Z" fill="#CB7A63"/>
<path d="M85.0101 105.265C84.605 104.917 84.3 104.467 84.1266 103.962C84.1221 103.934 84.1271 103.905 84.141 103.88C84.1549 103.855 84.1767 103.836 84.203 103.825C84.2304 103.819 84.2594 103.823 84.2838 103.837C84.3083 103.851 84.3262 103.875 84.3339 103.902C84.4942 104.336 84.7538 104.726 85.0919 105.041L85.0101 105.265Z" fill="#263238"/>
<path d="M67.5172 89.0696C65.4941 91.7962 64.5725 92.527 67.081 99.8399C68.0898 102.779 71.0183 106.673 72.4416 107.027C74.9937 107.671 77.475 105.882 79.3891 104.077C81.1313 102.562 82.59 100.748 83.6972 98.722C84.7224 96.6551 85.0987 94.1739 84.2426 92.0307C83.3264 89.7022 80.0926 87.6245 77.6713 87.1228C74.8356 86.512 69.2023 86.7847 67.5172 89.0696Z" fill="#263238"/>
<path d="M83.4347 99.1738C83.4347 99.1738 84.0727 100.264 83.2656 101.088V99.6319L83.4347 99.1738Z" fill="#263238"/>
<path d="M83.4342 99.1738C83.4342 99.1738 83.6687 100.853 82.2617 101.481L83.0143 99.6701L83.4342 99.1738Z" fill="#263238"/>
<path d="M74.0425 106.41C74.0425 106.41 72.4938 107.114 72.7174 108.635L73.8462 107.026L74.0425 106.41Z" fill="#263238"/>
<path d="M74.1008 106.449C74.1008 106.449 72.9229 107.671 73.6973 109.007L74.1499 107.093L74.1008 106.449Z" fill="#263238"/>
<path d="M85.5373 96.9773C86.1126 96.43 86.6215 95.8168 87.0533 95.1504C87.495 94.4814 87.688 93.6786 87.5987 92.8818C87.4888 92.3794 87.2697 91.9074 86.9568 91.4993C86.6438 91.0912 86.2449 90.757 85.7882 90.5206C84.8761 90.0503 83.8979 89.7212 82.887 89.5444C82.4083 89.3723 81.8823 89.3879 81.4146 89.588C81.22 89.7319 81.067 89.9248 80.9712 90.147C80.8754 90.3693 80.8402 90.6129 80.8693 90.8532C80.9214 91.3372 81.0541 91.8091 81.2619 92.2493C81.9267 94.0147 82.4162 95.8413 82.7234 97.7026C82.8925 98.6406 82.767 99.2677 83.6941 98.9023C84.2667 98.6896 85.0683 97.4735 85.5373 96.9773Z" fill="#263238"/>
<path d="M78.1963 99.6052C78.1398 100.835 78.5732 102.037 79.4015 102.948C80.4922 104.148 81.9209 103.363 82.3245 101.857C82.6898 100.516 82.5535 98.2746 81.0975 97.6311C79.6414 96.9876 78.2727 98.1055 78.1963 99.6052Z" fill="#CB7A63"/>
<path d="M140.05 167.756L144.26 163.655L136.107 153.408L131.02 156.413L140.05 167.756Z" fill="#CB7A63"/>
<path d="M148.557 162.388C148.093 162.224 147.134 162.748 146.403 163.211C146.218 163.326 146.054 163.441 145.912 163.539L145.841 163.593C145.678 163.708 145.558 163.795 145.514 163.833C145.489 163.845 145.469 163.865 145.457 163.89C145.445 163.915 145.442 163.943 145.449 163.97C145.457 163.997 145.473 164.021 145.495 164.039C145.518 164.056 145.545 164.067 145.574 164.068C146.076 164.089 146.579 164.073 147.079 164.019L147.412 163.98C147.773 163.953 148.12 163.833 148.421 163.631C148.53 163.564 148.633 163.486 148.726 163.397C148.805 163.302 148.859 163.189 148.883 163.068C148.906 162.947 148.899 162.822 148.862 162.704C148.84 162.631 148.801 162.564 148.748 162.509C148.695 162.454 148.629 162.413 148.557 162.388ZM148.59 162.781C148.617 162.86 148.622 162.945 148.606 163.028C148.59 163.11 148.552 163.186 148.497 163.25C148.27 163.469 147.98 163.614 147.668 163.664C147.299 163.749 146.923 163.798 146.545 163.811C146.37 163.811 146.188 163.811 145.999 163.811L146.185 163.675C146.226 163.641 146.27 163.61 146.316 163.582C146.902 163.169 147.547 162.847 148.23 162.628C148.313 162.604 148.402 162.604 148.486 162.628C148.516 162.641 148.541 162.663 148.56 162.69C148.578 162.717 148.588 162.748 148.59 162.781Z" fill="#407BFF"/>
<path opacity="0.2" d="M135.68 152.781L139.513 157.689L134.327 160.585L130.434 155.802L135.68 152.781Z" fill="black"/>
<path d="M65.1497 148.379L64.6044 150.501C64.5226 150.664 64.7243 150.823 64.9915 150.817L89.0243 150.272C89.237 150.272 89.406 150.157 89.4169 150.021L88.8171 147.801C88.8171 147.66 88.6426 147.54 88.4135 147.545L65.5096 148.221C65.4415 148.218 65.3735 148.231 65.3111 148.258C65.2486 148.286 65.1934 148.327 65.1497 148.379Z" fill="#263238"/>
<path d="M86.5374 150.502L85.9048 150.573C85.7794 150.573 85.6758 150.534 85.6758 150.453V147.726C85.6758 147.644 85.7794 147.568 85.8994 147.557L86.5319 147.48C86.6574 147.48 86.761 147.524 86.761 147.606V150.333C86.761 150.414 86.6628 150.491 86.5374 150.502Z" fill="#407BFF"/>
<path d="M77.9304 150.621L77.2978 150.686C77.1778 150.686 77.0742 150.648 77.0742 150.566V147.84C77.0742 147.763 77.1778 147.687 77.3033 147.671L77.9304 147.6C78.0558 147.6 78.1594 147.638 78.1594 147.72V150.446C78.1594 150.533 78.0558 150.621 77.9304 150.621Z" fill="#407BFF"/>
<path d="M77.9304 150.621L77.2978 150.686C77.1778 150.686 77.0742 150.648 77.0742 150.566V147.84C77.0742 147.763 77.1778 147.687 77.3033 147.671L77.9304 147.6C78.0558 147.6 78.1594 147.638 78.1594 147.72V150.446C78.1594 150.533 78.0558 150.621 77.9304 150.621Z" fill="#407BFF"/>
<path d="M138.905 154.984L137.841 155.584L136.009 156.62L134.373 157.542L132.688 158.491L132.039 158.856L131.636 158.556C131.537 158.491 131.423 158.409 131.292 158.305C130.888 158.005 130.332 157.591 129.656 157.073C126.27 154.39 120.233 149.122 118.433 144.329C117.272 145.714 115.881 147.453 114.289 149.373C107.428 157.646 96.7835 169.321 83.9791 170.843L83.1938 170.924C78.9129 171.29 75.5592 170.864 72.9143 169.899C66.2667 167.461 64.4126 161.621 64.8652 156.653C64.9088 154.324 65.3615 150.18 65.3615 150.18H89.6178C93.0316 146.03 99.8918 139.53 106.899 135.456C107.063 135.352 107.232 135.254 107.401 135.167C107.57 135.08 107.821 134.927 108.028 134.813C110.143 133.618 112.403 132.702 114.752 132.086C115.232 131.971 115.706 131.873 116.175 131.802C116.656 131.73 117.14 131.685 117.626 131.666C120.947 131.519 123.832 132.757 125.806 136.067L138.539 154.439L138.905 154.984Z" fill="#407BFF"/>
<path d="M125.817 129.779L99.0195 130.886L99.8048 113.834L126.602 112.727L125.817 129.779Z" fill="#407BFF"/>
<path d="M125.507 131.12L99.0965 132.211C98.9229 132.222 98.7489 132.196 98.5862 132.134C98.4235 132.073 98.2759 131.977 98.1534 131.853C98.0308 131.73 97.9363 131.582 97.876 131.418C97.8158 131.255 97.7912 131.081 97.8041 130.907L98.5785 113.964C98.6018 113.595 98.7594 113.247 99.0216 112.985C99.2837 112.724 99.6324 112.568 100.002 112.546L126.412 111.455C126.586 111.445 126.759 111.471 126.922 111.533C127.084 111.595 127.231 111.691 127.353 111.815C127.476 111.938 127.57 112.086 127.631 112.249C127.691 112.412 127.717 112.585 127.705 112.759L126.925 129.702C126.904 130.071 126.748 130.42 126.486 130.682C126.225 130.943 125.876 131.099 125.507 131.12Z" fill="#263238"/>
<path d="M125.817 129.779L99.0195 130.886L99.8048 113.834L126.602 112.727L125.817 129.779Z" fill="#407BFF"/>
<path opacity="0.9" d="M125.817 129.779L99.0195 130.886L99.8048 113.834L126.602 112.727L125.817 129.779Z" fill="white"/>
<path opacity="0.1" d="M109.315 112.171L104.887 131.966L106.648 131.895L111.016 112.1L109.315 112.171Z" fill="white"/>
<path opacity="0.1" d="M112.03 112.056L107.602 131.851L111.097 131.71L115.465 111.914L112.03 112.056Z" fill="white"/>
<path d="M117.117 131.333L126.039 131.082C126.192 132.118 125.75 132.505 125.183 132.522L122.331 132.593L120.422 132.636L117.461 132.718L99.0886 133.263L98.9414 131.971L117.117 131.333Z" fill="#407BFF"/>
<path d="M117.12 131.333L126.042 131.082C126.194 132.118 125.753 132.505 125.186 132.522L122.334 132.593L120.425 132.636L117.464 132.718L94.7234 133.416C94.5957 133.421 94.4693 133.389 94.3598 133.323C94.2503 133.257 94.1625 133.16 94.1072 133.045C94.0601 132.946 94.0383 132.837 94.0438 132.728C94.0493 132.619 94.0819 132.512 94.1387 132.419C94.1955 132.325 94.2747 132.247 94.3692 132.192C94.4636 132.137 94.5704 132.106 94.6798 132.102L117.12 131.333Z" fill="#407BFF"/>
<path opacity="0.2" d="M117.12 131.333L126.042 131.082C126.194 132.118 125.753 132.505 125.186 132.522L122.334 132.593L120.425 132.636L117.464 132.718L94.7234 133.416C94.5957 133.421 94.4693 133.389 94.3598 133.323C94.2503 133.257 94.1625 133.16 94.1072 133.045C94.0601 132.946 94.0383 132.837 94.0438 132.728C94.0493 132.619 94.0819 132.512 94.1387 132.419C94.1955 132.325 94.2747 132.247 94.3692 132.192C94.4636 132.137 94.5704 132.106 94.6798 132.102L117.12 131.333Z" fill="black"/>
<path opacity="0.2" d="M126.04 131.082L126.095 131.442C126.116 131.575 126.108 131.711 126.072 131.84C126.036 131.97 125.973 132.091 125.887 132.194C125.801 132.297 125.693 132.381 125.572 132.439C125.451 132.498 125.319 132.53 125.184 132.533L122.332 132.603L117.031 132.794L117.119 131.344L126.04 131.082Z" fill="black"/>
<path opacity="0.2" d="M79.8281 120.258C79.8281 120.258 78.5684 122.826 82.2058 129.61L83.7272 132.375C84.229 133.286 87.5446 131.426 88.5589 129.719C88.5589 129.719 82.1785 125.891 79.8281 120.258Z" fill="black"/>
<path d="M110.7 128.165L113.236 127.418L112.833 131.333C112.833 131.333 109.293 133.7 108.066 131.437L108.563 130.177C108.745 129.703 109.033 129.276 109.403 128.928C109.773 128.58 110.216 128.319 110.7 128.165Z" fill="#CB7A63"/>
<path d="M116.154 128.955L115.838 130.368C115.791 130.581 115.678 130.773 115.514 130.917C115.35 131.06 115.144 131.147 114.927 131.164L112.816 131.333L113.225 127.412L115.298 127.739C115.564 127.775 115.805 127.914 115.968 128.126C116.132 128.339 116.204 128.608 116.17 128.874L116.154 128.955Z" fill="#CB7A63"/>
<path d="M89.5648 134.806C91.3371 137.205 93.8238 139.212 96.7468 139.785C100.193 140.456 106.824 135.58 109.933 132.428C109.78 131.098 109.867 130.378 108.542 130.193C108.542 130.193 105.118 132.701 98.6663 134.206C96.5777 134.691 95.1871 132.57 93.3712 129.456C92.4659 127.913 89.5538 121.565 88.425 120.153C86.6472 117.884 81.5975 119.509 83.6043 124.968C84.4441 127.248 88.1196 132.832 89.5648 134.806Z" fill="#CB7A63"/>
<path d="M87.6787 116.424C91.2615 119.696 93.0066 125.542 93.0066 125.542L84.6358 130.646C84.6358 130.646 78.5281 122.052 79.6187 119.058C80.4803 116.735 82.0782 115.208 84.1777 115.077C84.8217 115.055 85.4635 115.164 86.0649 115.395C86.6663 115.626 87.2151 115.976 87.6787 116.424Z" fill="#407BFF"/>
<path d="M68.4687 150.943H67.8361C67.7107 150.943 67.6071 150.883 67.618 150.801L67.8525 148.075C67.8525 147.993 67.967 147.927 68.0924 147.922H68.725C68.8504 147.922 68.954 147.987 68.9431 148.064L68.7086 150.79C68.6957 150.842 68.6636 150.886 68.619 150.914C68.5744 150.943 68.5206 150.953 68.4687 150.943Z" fill="#407BFF"/>
<path d="M131.003 160.017L139.162 155.938L138.464 153.037L129.16 157.28L131.003 160.017Z" fill="#407BFF"/>
<path opacity="0.5" d="M131.003 160.017L139.162 155.938L138.464 153.037L129.16 157.28L131.003 160.017Z" fill="white"/>
<path d="M143.934 163.208L138.306 164.909C138.199 164.938 138.106 165.005 138.044 165.097C137.982 165.189 137.955 165.3 137.968 165.411L138.65 170.515C138.669 170.635 138.712 170.75 138.776 170.853C138.84 170.957 138.924 171.046 139.023 171.117C139.122 171.187 139.234 171.237 139.352 171.264C139.471 171.291 139.593 171.294 139.713 171.273H139.811C149.213 169.708 152.316 168.001 153.325 167.641C156.215 166.665 155.059 164.538 154.034 164.598C149.431 164.882 147.997 164.347 146.17 163.508C145.461 163.224 144.693 163.121 143.934 163.208Z" fill="#263238"/>
<path d="M68.2574 95.918C66.5668 96.1852 64.8927 94.8873 64.3637 93.2622C64.1455 92.4349 64.1022 91.5711 64.2364 90.7261C64.3707 89.881 64.6796 89.0732 65.1435 88.3542C65.7816 87.2636 69.9643 84.6787 71.513 87.5908C74.5996 93.3604 68.2574 95.918 68.2574 95.918Z" fill="#263238"/>
<path d="M125.578 118.572L109.082 119.27L109.158 117.634L125.655 116.936L125.578 118.572Z" fill="#407BFF"/>
<g opacity="0.7">
<path d="M125.578 118.572L109.082 119.27L109.158 117.634L125.655 116.936L125.578 118.572Z" fill="white"/>
</g>
<path d="M125.481 120.839L108.984 121.543L109.055 119.907L125.552 119.203L125.481 120.839Z" fill="#407BFF"/>
<g opacity="0.7">
<path d="M125.481 120.839L108.984 121.543L109.055 119.907L125.552 119.203L125.481 120.839Z" fill="white"/>
</g>
<path d="M125.375 123.115L108.879 123.818L108.955 122.177L125.446 121.479L125.375 123.115Z" fill="#407BFF"/>
<g opacity="0.7">
<path d="M125.375 123.115L108.879 123.818L108.955 122.177L125.446 121.479L125.375 123.115Z" fill="white"/>
</g>
<path d="M125.274 125.382L108.777 126.086L108.854 124.45L125.35 123.746L125.274 125.382Z" fill="#407BFF"/>
<g opacity="0.7">
<path d="M125.274 125.382L108.777 126.086L108.854 124.45L125.35 123.746L125.274 125.382Z" fill="white"/>
</g>
<path d="M125.176 127.656L108.68 128.359L108.751 126.723L125.247 126.02L125.176 127.656Z" fill="#407BFF"/>
<g opacity="0.7">
<path d="M125.176 127.657L108.68 128.361L108.751 126.725L125.247 126.021L125.176 127.657Z" fill="white"/>
</g>
<path d="M102.41 120.193L101.086 120.25L101.109 120.795L102.433 120.738L102.41 120.193Z" fill="#407BFF"/>
<g opacity="0.5">
<path d="M102.41 120.193L101.086 120.25L101.109 120.795L102.433 120.738L102.41 120.193Z" fill="white"/>
</g>
<path d="M102.347 121.771L101.023 121.828L101.047 122.373L102.371 122.316L102.347 121.771Z" fill="#407BFF"/>
<g opacity="0.5">
<path d="M102.347 121.771L101.023 121.828L101.047 122.373L102.371 122.316L102.347 121.771Z" fill="white"/>
</g>
<path d="M101.95 123.771L100.625 123.824L100.647 124.37L101.972 124.317L101.95 123.771Z" fill="#407BFF"/>
<g opacity="0.5">
<path d="M101.95 123.771L100.625 123.824L100.647 124.37L101.972 124.317L101.95 123.771Z" fill="white"/>
</g>
<path d="M102.226 124.914L100.902 124.971L100.926 125.516L102.25 125.459L102.226 124.914Z" fill="#407BFF"/>
<g opacity="0.5">
<path d="M102.226 124.914L100.902 124.971L100.926 125.516L102.25 125.459L102.226 124.914Z" fill="white"/>
</g>
<path d="M101.813 126.918L100.488 126.971L100.51 127.516L101.835 127.463L101.813 126.918Z" fill="#407BFF"/>
<g opacity="0.5">
<path d="M100.871 127.084L100.92 126.538L102.24 126.479L102.191 127.029L100.871 127.084Z" fill="white"/>
</g>
<path d="M102.101 128.06L100.777 128.115L100.8 128.66L102.124 128.604L102.101 128.06Z" fill="#407BFF"/>
<g opacity="0.5">
<path d="M102.101 128.06L100.777 128.115L100.8 128.66L102.124 128.604L102.101 128.06Z" fill="white"/>
</g>
<path d="M103.796 118.685L101.059 119.705L101.086 118.985L102.602 118.739L101.102 118.636L101.129 117.916L103.796 118.685Z" fill="#407BFF"/>
<path d="M120.512 116.084L109.082 116.569L109.137 115.435L120.567 114.949L120.512 116.084Z" fill="#407BFF"/>
<g opacity="0.7">
<path d="M120.512 116.084L109.082 116.569L109.137 115.435L120.567 114.949L120.512 116.084Z" fill="white"/>
</g>
<path d="M105.088 116.669L103.414 116.745L104.09 116.314L104.276 116.483L104.477 116.309L105.088 116.669Z" fill="#407BFF"/>
<path d="M104.028 116.259L103.352 116.695L103.401 115.691L104.028 116.259Z" fill="#407BFF"/>
<path d="M105.198 115.664L105.144 116.607L104.527 116.248L105.198 115.664Z" fill="#407BFF"/>
<path d="M104.295 116.083L104.258 116.123L104.262 116.127L104.299 116.087L104.295 116.083Z" fill="white"/>
<path d="M104.27 116.09L104.266 116.094L104.303 116.133L104.307 116.13L104.27 116.09Z" fill="white"/>
<path d="M105.197 115.566L104.477 116.221L104.276 116.401L104.09 116.226L103.463 115.659L103.414 115.615L105.197 115.566Z" fill="#407BFF"/>
<path d="M102.414 115.756L101.09 115.812L101.097 115.976L102.421 115.92L102.414 115.756Z" fill="#407BFF"/>
<path d="M102.414 116.17L101.09 116.227L101.097 116.39L102.421 116.334L102.414 116.17Z" fill="#407BFF"/>
<path d="M102.418 116.594L101.094 116.65L101.101 116.814L102.425 116.758L102.418 116.594Z" fill="#407BFF"/>
<path d="M73.8975 129.189L78.8437 185.729H70.8927L65.5703 124.887H69.224C70.3993 124.892 71.5303 125.336 72.3949 126.132C73.2596 126.928 73.7955 128.019 73.8975 129.189Z" fill="#407BFF"/>
<path opacity="0.2" d="M73.9466 129.702L78.8546 185.729H70.8927L65.5703 124.887H68.7114C70.0272 124.893 71.2934 125.389 72.2618 126.28C73.2302 127.171 73.8311 128.391 73.9466 129.702Z" fill="black"/>
<path d="M68.7105 128.573L73.7112 185.729H26.2673L21.3593 129.277C21.3102 128.719 21.3776 128.157 21.5572 127.627C21.7368 127.097 22.0248 126.61 22.4028 126.197C22.7808 125.784 23.2405 125.455 23.7528 125.229C24.2651 125.003 24.8187 124.887 25.3784 124.887H64.7405C65.7416 124.899 66.7024 125.283 67.436 125.965C68.1697 126.646 68.624 127.576 68.7105 128.573Z" fill="#407BFF"/>
<path opacity="0.2" d="M68.7708 129.195L73.717 185.729H26.2731L21.3815 130.018C21.3241 129.367 21.4027 128.71 21.6125 128.091C21.8223 127.471 22.1587 126.902 22.6002 126.42C23.0418 125.937 23.5789 125.551 24.1774 125.288C24.7759 125.024 25.4227 124.887 26.0768 124.887H64.0755C65.2551 124.888 66.3915 125.331 67.2606 126.128C68.1297 126.926 68.6686 128.02 68.7708 129.195Z" fill="white"/>
<path d="M152.248 185.729H26.4672L25.082 170.051H145.818C147.191 170.076 148.508 170.603 149.519 171.532C150.529 172.461 151.165 173.729 151.304 175.095L152.248 185.729Z" fill="#407BFF"/>
<path opacity="0.2" d="M152.248 185.729H26.4672L25.082 170.051H145.818C147.191 170.076 148.508 170.603 149.519 171.532C150.529 172.461 151.165 173.729 151.304 175.095L152.248 185.729Z" fill="white"/>
<path d="M158.02 191.734H24.9919C24.1636 191.732 23.3697 191.403 22.784 190.817C22.1983 190.231 21.8686 189.437 21.8672 188.609C21.8672 187.78 22.1964 186.986 22.7824 186.4C23.3684 185.814 24.1632 185.484 24.9919 185.484H158.02C158.849 185.484 159.644 185.814 160.23 186.4C160.816 186.986 161.145 187.78 161.145 188.609C161.143 189.437 160.814 190.231 160.228 190.817C159.642 191.403 158.848 191.732 158.02 191.734Z" fill="#407BFF"/>
<path opacity="0.2" d="M158.021 191.734H80.7966C79.9679 191.734 79.1731 191.405 78.5871 190.819C78.0011 190.233 77.6719 189.438 77.6719 188.609C77.6712 188.199 77.7515 187.792 77.9083 187.412C78.0651 187.033 78.2952 186.688 78.5855 186.398C78.8758 186.108 79.2206 185.878 79.6 185.721C79.9794 185.564 80.3861 185.484 80.7966 185.484H158.021C158.85 185.484 159.645 185.814 160.231 186.4C160.817 186.986 161.146 187.78 161.146 188.609C161.144 189.437 160.815 190.231 160.229 190.817C159.643 191.403 158.849 191.732 158.021 191.734Z" fill="black"/>
<path d="M26.7383 191.732L28.3143 197.093H31.4663L33.2005 191.732H26.7383Z" fill="#263238"/>
<path opacity="0.5" d="M26.7383 191.732L28.3143 197.093H31.4663L33.2005 191.732H26.7383Z" fill="white"/>
<path d="M71.9062 191.732L73.4823 197.093H76.6343L78.3739 191.732H71.9062Z" fill="#263238"/>
<path opacity="0.5" d="M71.9062 191.732L73.4823 197.093H76.6343L78.3739 191.732H71.9062Z" fill="white"/>
<path d="M106.48 191.732L108.056 197.093H111.208L112.943 191.732H106.48Z" fill="#263238"/>
<path opacity="0.5" d="M106.48 191.732L108.056 197.093H111.208L112.943 191.732H106.48Z" fill="white"/>
<path d="M151.648 191.732L153.224 197.093H156.376L158.111 191.732H151.648Z" fill="#263238"/>
<path opacity="0.5" d="M151.648 191.732L153.224 197.093H156.376L158.111 191.732H151.648Z" fill="white"/>
<path d="M57.7441 122.76H54.2922C54.2199 122.76 54.1505 122.731 54.0994 122.68C54.0483 122.629 54.0195 122.56 54.0195 122.488C54.0195 122.415 54.0483 122.346 54.0994 122.295C54.1505 122.244 54.2199 122.215 54.2922 122.215H57.7441C57.816 122.216 57.8846 122.245 57.9354 122.296C57.9862 122.347 58.0154 122.416 58.0168 122.488C58.0168 122.56 57.9881 122.629 57.937 122.68C57.8858 122.731 57.8165 122.76 57.7441 122.76Z" fill="#407BFF"/>
<path d="M51.9979 122.76H34.6945C34.6222 122.76 34.5529 122.731 34.5017 122.68C34.4506 122.629 34.4219 122.56 34.4219 122.488C34.4233 122.416 34.4524 122.347 34.5033 122.296C34.5541 122.245 34.6227 122.216 34.6945 122.215H51.9979C52.0698 122.216 52.1383 122.245 52.1892 122.296C52.24 122.347 52.2692 122.416 52.2706 122.488C52.2706 122.56 52.2418 122.629 52.1907 122.68C52.1396 122.731 52.0702 122.76 51.9979 122.76Z" fill="#407BFF"/>
<path d="M113.348 154.318C113.28 154.316 113.215 154.291 113.163 154.247C113.137 154.222 113.117 154.192 113.103 154.158C113.089 154.125 113.082 154.09 113.082 154.054C113.082 154.018 113.089 153.982 113.103 153.949C113.117 153.916 113.137 153.885 113.163 153.86L114.799 152.104C114.824 152.079 114.854 152.058 114.887 152.044C114.921 152.031 114.956 152.023 114.992 152.023C115.028 152.023 115.064 152.031 115.097 152.044C115.13 152.058 115.161 152.079 115.186 152.104C115.236 152.156 115.264 152.225 115.264 152.298C115.264 152.37 115.236 152.439 115.186 152.491L113.55 154.247C113.494 154.296 113.422 154.322 113.348 154.318Z" fill="#407BFF"/>
<path d="M98.5599 168.294C98.5095 168.294 98.46 168.28 98.4174 168.253C98.3749 168.226 98.341 168.187 98.32 168.141C98.3032 168.11 98.293 168.075 98.29 168.039C98.287 168.003 98.2912 167.967 98.3024 167.933C98.3136 167.899 98.3316 167.867 98.3552 167.84C98.3788 167.813 98.4077 167.791 98.44 167.776C103.49 165.218 111.501 155.653 111.582 155.555C111.605 155.527 111.633 155.505 111.665 155.488C111.696 155.471 111.731 155.461 111.766 155.458C111.802 155.455 111.838 155.459 111.872 155.47C111.906 155.481 111.937 155.499 111.964 155.522C112.019 155.57 112.053 155.637 112.059 155.709C112.065 155.782 112.043 155.853 111.997 155.909C111.67 156.302 103.817 165.655 98.6854 168.261C98.6472 168.283 98.6039 168.294 98.5599 168.294Z" fill="#407BFF"/>
</svg>
