<svg width="54" height="57" viewBox="0 0 54 57" fill="none" xmlns="http://www.w3.org/2000/svg">
<g clip-path="url(#clip0_155_127)">
<path d="M46.8101 34.4498L45.0269 32.9037C43.9457 31.9605 43.351 30.5368 43.422 29.0619C43.422 28.734 43.422 28.3826 43.422 28.0546C43.422 27.7267 43.422 27.3753 43.422 27.0473C43.351 25.5725 43.9457 24.1488 45.0269 23.2055L46.8101 21.6595C47.6562 20.9384 47.8824 19.6803 47.345 18.6844L44.7594 13.9993C44.2114 13.0211 43.0749 12.5967 42.0624 12.992L39.8334 13.8353C38.518 14.352 37.0478 14.1871 35.8658 13.3903C35.3418 13.0098 34.7903 12.673 34.2163 12.383C32.9621 11.707 32.0859 10.4474 31.8536 8.98627L31.4747 6.64372C31.2981 5.49808 30.3499 4.66104 29.2457 4.67598H24.1191C23.0148 4.66104 22.0667 5.49808 21.8901 6.64372L21.5112 8.98627C21.2983 10.4289 20.4576 11.6849 19.2376 12.383C18.6636 12.673 18.1121 13.0098 17.5882 13.3903C16.4061 14.1871 14.936 14.352 13.6206 13.8353L11.3916 12.992C10.392 12.6225 9.28305 13.0436 8.7391 13.9993L6.15349 18.6844C5.61614 19.6803 5.84237 20.9384 6.68844 21.6595L8.47163 23.2055C9.55279 24.1488 10.1475 25.5725 10.0765 27.0473C10.0765 27.3753 10.0765 27.7267 10.0765 28.0546C10.0765 28.3826 10.0765 28.734 10.0765 29.0619C10.1475 30.5368 9.55279 31.9605 8.47163 32.9037L6.68844 34.4498C5.84237 35.1709 5.61614 36.429 6.15349 37.4248L8.7391 42.1099C9.28715 43.0881 10.4237 43.5126 11.4362 43.1172L13.6652 42.2739C14.9806 41.7572 16.4507 41.9221 17.6327 42.719C18.1567 43.0994 18.7082 43.4362 19.2822 43.7263C20.5364 44.4023 21.4126 45.6618 21.6449 47.123L22.0238 49.4655C22.2004 50.6112 23.1486 51.4482 24.2528 51.4333H29.3795C30.4837 51.4482 31.4318 50.6112 31.6084 49.4655L31.9874 47.123C32.2197 45.6618 33.0958 44.4023 34.3501 43.7263C34.924 43.4362 35.4755 43.0994 35.9995 42.719C37.1815 41.9221 38.6517 41.7572 39.9671 42.2739L42.1961 43.1172C43.1692 43.4371 44.2248 43.0223 44.7594 42.1099L47.345 37.4248C47.8824 36.429 47.6562 35.1709 46.8101 34.4498ZM26.7493 35.0823C23.0562 35.0823 20.0623 31.9359 20.0623 28.0546C20.0623 24.1734 23.0562 21.027 26.7493 21.027C30.4424 21.027 33.4362 24.1734 33.4362 28.0546C33.4362 29.9185 32.7317 31.706 31.4776 33.0239C30.2236 34.3419 28.5228 35.0823 26.7493 35.0823Z" fill="#333333"/>
<g clip-path="url(#clip1_155_127)">
<path d="M46.8101 34.4498L45.0269 32.9037C43.9457 31.9605 43.351 30.5368 43.422 29.0619C43.422 28.734 43.422 28.3826 43.422 28.0546C43.422 27.7267 43.422 27.3753 43.422 27.0473C43.351 25.5725 43.9457 24.1488 45.0269 23.2055L46.8101 21.6595C47.6562 20.9384 47.8824 19.6803 47.345 18.6844L44.7594 13.9993C44.2114 13.0211 43.0749 12.5967 42.0624 12.992L39.8334 13.8353C38.518 14.352 37.0478 14.1871 35.8658 13.3903C35.3418 13.0098 34.7903 12.673 34.2163 12.383C32.9621 11.707 32.0859 10.4474 31.8536 8.98627L31.4747 6.64372C31.2981 5.49808 30.3499 4.66104 29.2457 4.67598H24.1191C23.0148 4.66104 22.0667 5.49808 21.8901 6.64372L21.5112 8.98627C21.2983 10.4289 20.4576 11.6849 19.2376 12.383C18.6636 12.673 18.1121 13.0098 17.5882 13.3903C16.4061 14.1871 14.936 14.352 13.6206 13.8353L11.3916 12.992C10.392 12.6225 9.28305 13.0436 8.7391 13.9993L6.15349 18.6844C5.61614 19.6803 5.84237 20.9384 6.68844 21.6595L8.47163 23.2055C9.55279 24.1488 10.1475 25.5725 10.0765 27.0473C10.0765 27.3753 10.0765 27.7267 10.0765 28.0546C10.0765 28.3826 10.0765 28.734 10.0765 29.0619C10.1475 30.5368 9.55279 31.9605 8.47163 32.9037L6.68844 34.4498C5.84237 35.1709 5.61614 36.429 6.15349 37.4248L8.7391 42.1099C9.28715 43.0881 10.4237 43.5126 11.4362 43.1172L13.6652 42.2739C14.9806 41.7572 16.4507 41.9221 17.6327 42.719C18.1567 43.0994 18.7082 43.4362 19.2822 43.7263C20.5364 44.4023 21.4126 45.6618 21.6449 47.123L22.0238 49.4655C22.2004 50.6112 23.1486 51.4482 24.2528 51.4333H29.3795C30.4837 51.4482 31.4318 50.6112 31.6084 49.4655L31.9874 47.123C32.2197 45.6618 33.0958 44.4023 34.3501 43.7263C34.924 43.4362 35.4755 43.0994 35.9995 42.719C37.1815 41.9221 38.6517 41.7572 39.9671 42.2739L42.1961 43.1172C43.1692 43.4371 44.2248 43.0223 44.7594 42.1099L47.345 37.4248C47.8824 36.429 47.6562 35.1709 46.8101 34.4498ZM26.7493 35.0823C23.0562 35.0823 20.0623 31.9359 20.0623 28.0546C20.0623 24.1734 23.0562 21.027 26.7493 21.027C30.4424 21.027 33.4362 24.1734 33.4362 28.0546C33.4362 29.9185 32.7317 31.706 31.4776 33.0239C30.2236 34.3419 28.5228 35.0823 26.7493 35.0823Z" fill="#333333"/>
<g clip-path="url(#clip2_155_127)">
<path d="M46.8101 34.4498L45.0269 32.9037C43.9457 31.9605 43.351 30.5368 43.422 29.0619C43.422 28.734 43.422 28.3826 43.422 28.0546C43.422 27.7267 43.422 27.3753 43.422 27.0473C43.351 25.5725 43.9457 24.1488 45.0269 23.2055L46.8101 21.6595C47.6562 20.9384 47.8824 19.6803 47.345 18.6844L44.7594 13.9993C44.2114 13.0211 43.0749 12.5967 42.0624 12.992L39.8334 13.8353C38.518 14.352 37.0478 14.1871 35.8658 13.3903C35.3418 13.0098 34.7903 12.673 34.2163 12.383C32.9621 11.707 32.0859 10.4474 31.8536 8.98627L31.4747 6.64372C31.2981 5.49808 30.3499 4.66104 29.2457 4.67598H24.1191C23.0148 4.66104 22.0667 5.49808 21.8901 6.64372L21.5112 8.98627C21.2983 10.4289 20.4576 11.6849 19.2376 12.383C18.6636 12.673 18.1121 13.0098 17.5882 13.3903C16.4061 14.1871 14.936 14.352 13.6206 13.8353L11.3916 12.992C10.392 12.6225 9.28305 13.0436 8.7391 13.9993L6.15349 18.6844C5.61614 19.6803 5.84237 20.9384 6.68844 21.6595L8.47163 23.2055C9.55279 24.1488 10.1475 25.5725 10.0765 27.0473C10.0765 27.3753 10.0765 27.7267 10.0765 28.0546C10.0765 28.3826 10.0765 28.734 10.0765 29.0619C10.1475 30.5368 9.55279 31.9605 8.47163 32.9037L6.68844 34.4498C5.84237 35.1709 5.61614 36.429 6.15349 37.4248L8.7391 42.1099C9.28715 43.0881 10.4237 43.5126 11.4362 43.1172L13.6652 42.2739C14.9806 41.7572 16.4507 41.9221 17.6327 42.719C18.1567 43.0994 18.7082 43.4362 19.2822 43.7263C20.5364 44.4023 21.4126 45.6618 21.6449 47.123L22.0238 49.4655C22.2004 50.6112 23.1486 51.4482 24.2528 51.4333H29.3795C30.4837 51.4482 31.4318 50.6112 31.6084 49.4655L31.9874 47.123C32.2197 45.6618 33.0958 44.4023 34.3501 43.7263C34.924 43.4362 35.4755 43.0994 35.9995 42.719C37.1815 41.9221 38.6517 41.7572 39.9671 42.2739L42.1961 43.1172C43.1692 43.4371 44.2248 43.0223 44.7594 42.1099L47.345 37.4248C47.8824 36.429 47.6562 35.1709 46.8101 34.4498ZM26.7493 35.0823C23.0562 35.0823 20.0623 31.9359 20.0623 28.0546C20.0623 24.1734 23.0562 21.027 26.7493 21.027C30.4424 21.027 33.4362 24.1734 33.4362 28.0546C33.4362 29.9185 32.7317 31.706 31.4776 33.0239C30.2236 34.3419 28.5228 35.0823 26.7493 35.0823Z" fill="#333333"/>
<g clip-path="url(#clip3_155_127)">
<path d="M46.8101 34.4498L45.0269 32.9037C43.9457 31.9605 43.351 30.5368 43.422 29.0619C43.422 28.734 43.422 28.3826 43.422 28.0546C43.422 27.7267 43.422 27.3753 43.422 27.0473C43.351 25.5725 43.9457 24.1488 45.0269 23.2055L46.8101 21.6595C47.6562 20.9384 47.8824 19.6803 47.345 18.6844L44.7594 13.9993C44.2114 13.0211 43.0749 12.5967 42.0624 12.992L39.8334 13.8353C38.518 14.352 37.0478 14.1871 35.8658 13.3903C35.3418 13.0098 34.7903 12.673 34.2163 12.383C32.9621 11.707 32.0859 10.4474 31.8536 8.98627L31.4747 6.64372C31.2981 5.49808 30.3499 4.66104 29.2457 4.67598H24.1191C23.0148 4.66104 22.0667 5.49808 21.8901 6.64372L21.5112 8.98627C21.2983 10.4289 20.4576 11.6849 19.2376 12.383C18.6636 12.673 18.1121 13.0098 17.5882 13.3903C16.4061 14.1871 14.936 14.352 13.6206 13.8353L11.3916 12.992C10.392 12.6225 9.28305 13.0436 8.7391 13.9993L6.15349 18.6844C5.61614 19.6803 5.84237 20.9384 6.68844 21.6595L8.47163 23.2055C9.55279 24.1488 10.1475 25.5725 10.0765 27.0473C10.0765 27.3753 10.0765 27.7267 10.0765 28.0546C10.0765 28.3826 10.0765 28.734 10.0765 29.0619C10.1475 30.5368 9.55279 31.9605 8.47163 32.9037L6.68844 34.4498C5.84237 35.1709 5.61614 36.429 6.15349 37.4248L8.7391 42.1099C9.28715 43.0881 10.4237 43.5126 11.4362 43.1172L13.6652 42.2739C14.9806 41.7572 16.4507 41.9221 17.6327 42.719C18.1567 43.0994 18.7082 43.4362 19.2822 43.7263C20.5364 44.4023 21.4126 45.6618 21.6449 47.123L22.0238 49.4655C22.2004 50.6112 23.1486 51.4482 24.2528 51.4333H29.3795C30.4837 51.4482 31.4318 50.6112 31.6084 49.4655L31.9874 47.123C32.2197 45.6618 33.0958 44.4023 34.3501 43.7263C34.924 43.4362 35.4755 43.0994 35.9995 42.719C37.1815 41.9221 38.6517 41.7572 39.9671 42.2739L42.1961 43.1172C43.1692 43.4371 44.2248 43.0223 44.7594 42.1099L47.345 37.4248C47.8824 36.429 47.6562 35.1709 46.8101 34.4498ZM26.7493 35.0823C23.0562 35.0823 20.0623 31.9359 20.0623 28.0546C20.0623 24.1734 23.0562 21.027 26.7493 21.027C30.4424 21.027 33.4362 24.1734 33.4362 28.0546C33.4362 29.9185 32.7317 31.706 31.4776 33.0239C30.2236 34.3419 28.5228 35.0823 26.7493 35.0823Z" fill="#333333"/>
</g>
</g>
</g>
</g>
<defs>
<clipPath id="clip0_155_127">
<rect width="53.4955" height="56.1092" fill="white"/>
</clipPath>
<clipPath id="clip1_155_127">
<rect width="53.4955" height="56.1092" fill="white"/>
</clipPath>
<clipPath id="clip2_155_127">
<rect width="53.4955" height="56.1092" fill="white"/>
</clipPath>
<clipPath id="clip3_155_127">
<rect width="53.4955" height="56.1092" fill="white"/>
</clipPath>
</defs>
</svg>
