<svg width="75" height="75" viewBox="0 0 75 75" fill="none" xmlns="http://www.w3.org/2000/svg">
<g clip-path="url(#clip0_142_95)">
<path d="M28.125 34.375H21.875V40.625H28.125V34.375ZM40.625 34.375H34.375V40.625H40.625V34.375ZM53.125 34.375H46.875V40.625H53.125V34.375ZM59.375 12.5H56.25V6.25H50V12.5H25V6.25H18.75V12.5H15.625C12.1562 12.5 9.40625 15.3125 9.40625 18.75L9.375 62.5C9.375 65.9375 12.1562 68.75 15.625 68.75H59.375C62.8125 68.75 65.625 65.9375 65.625 62.5V18.75C65.625 15.3125 62.8125 12.5 59.375 12.5ZM59.375 62.5H15.625V28.125H59.375V62.5Z" fill="black"/>
</g>
<defs>
<clipPath id="clip0_142_95">
<rect width="75" height="75" fill="white"/>
</clipPath>
</defs>
</svg>
