<svg width="75" height="75" viewBox="0 0 75 75" fill="none" xmlns="http://www.w3.org/2000/svg">
<g clip-path="url(#clip0_142_98)">
<path d="M65.6251 31.625H44.4376L53.0001 22.8125C44.4688 14.375 30.6564 14.0625 22.1251 22.5C13.5939 30.9688 13.5939 44.625 22.1251 53.0938C30.6564 61.5625 44.4688 61.5625 53.0001 53.0938C57.2501 48.9062 59.3751 44 59.3751 37.8125H65.6251C65.6251 44 62.8751 52.0312 57.3751 57.4688C46.4064 68.3438 28.5939 68.3438 17.6251 57.4688C6.6876 46.625 6.59385 29 17.5626 18.1562C28.5314 7.3125 46.1251 7.3125 57.0939 18.1562L65.6251 9.375V31.625ZM39.0626 25V38.2812L50.0001 44.7812L47.7501 48.5625L34.3751 40.625V25H39.0626Z" fill="black"/>
</g>
<defs>
<clipPath id="clip0_142_98">
<rect width="75" height="75" fill="white"/>
</clipPath>
</defs>
</svg>
