<svg width="75" height="50" viewBox="0 0 75 50" fill="none" xmlns="http://www.w3.org/2000/svg">
<path d="M51.1364 21.4286C56.7955 21.4286 61.3295 16.6429 61.3295 10.7143C61.3295 4.78571 56.7955 0 51.1364 0C45.4773 0 40.9091 4.78571 40.9091 10.7143C40.9091 16.6429 45.4773 21.4286 51.1364 21.4286ZM23.8636 21.4286C29.5227 21.4286 34.0568 16.6429 34.0568 10.7143C34.0568 4.78571 29.5227 0 23.8636 0C18.2045 0 13.6364 4.78571 13.6364 10.7143C13.6364 16.6429 18.2045 21.4286 23.8636 21.4286ZM23.8636 28.5714C15.9205 28.5714 0 32.75 0 41.0714V50H47.7273V41.0714C47.7273 32.75 31.8068 28.5714 23.8636 28.5714ZM51.1364 28.5714C50.1477 28.5714 49.0227 28.6429 47.8295 28.75C51.7841 31.75 54.5455 35.7857 54.5455 41.0714V50H75V41.0714C75 32.75 59.0795 28.5714 51.1364 28.5714Z" fill="black"/>
</svg>
