<svg width="50" height="44" viewBox="0 0 50 44" fill="none" xmlns="http://www.w3.org/2000/svg">
<path d="M8.33464 7.91016C6.03255 7.91016 4.16797 9.49031 4.16797 11.4412V32.6277C4.16797 34.5786 6.03255 36.1587 8.33464 36.1587H41.668C43.9701 36.1587 45.8346 34.5786 45.8346 32.6277V11.4412C45.8346 9.49031 43.9701 7.91016 41.668 7.91016H8.33464ZM29.9777 16.7378C31.2694 16.7378 32.7772 17.2861 32.7772 17.2861L32.1302 19.4758C32.1302 19.4758 31.0527 18.7448 29.9777 18.7448C28.4715 18.7448 28.0409 19.294 28.0409 19.8413C28.0409 21.1178 32.3459 21.297 32.3459 23.8517C32.3438 26.0374 29.3314 27.4974 27.3939 27.3138C25.2418 27.3138 24.1672 26.769 24.1672 26.769L24.5985 24.5793C24.5985 24.5793 25.8887 25.1276 27.6095 25.1276C29.3304 25.1276 29.5464 24.5775 29.5464 24.2138C29.5464 22.5718 25.2414 23.12 25.2414 19.8379C25.2414 18.1959 26.7485 16.7378 29.9777 16.7378ZM16.4198 16.9206H19.4308L14.9102 27.1345H11.6834L9.31527 18.9275C9.31527 18.9275 11.8984 20.2031 13.4046 23.3034C13.4046 23.6689 13.6203 24.2172 13.6203 24.2172L16.4198 16.9206ZM37.2938 16.9206H40.5205L42.8887 27.1345H40.3049L39.8735 25.6759H35.9998L35.3569 27.1345H32.3418L37.2938 16.9206ZM20.7207 17.0999H23.9474L22.0106 27.3138H18.9995L20.7207 17.0999ZM5.65723 17.1034H10.3936C11.6852 17.1034 12.1147 18.0137 12.1147 18.0137L13.189 22.5724C11.8973 18.7429 5.65723 17.1034 5.65723 17.1034ZM38.368 20.0206L36.6468 23.8517H39.2266L38.368 20.0206Z" fill="white"/>
</svg>
